<svg xmlns="http://www.w3.org/2000/svg" width="810" viewBox="0 0 810 810" height="810" version="1.0"><defs><clipPath id="a"><path d="M 318 175.515625 L 492 175.515625 L 492 578.265625 L 318 578.265625 Z M 318 175.515625"/></clipPath><clipPath id="b"><path d="M 117.296875 233 L 290 233 L 290 521 L 117.296875 521 Z M 117.296875 233"/></clipPath><clipPath id="c"><path d="M 519 233 L 692.546875 233 L 692.546875 521 L 519 521 Z M 519 233"/></clipPath></defs><path fill="#FFF" d="M-81 -81H891V891H-81z"/><path fill="#FFF" d="M-81 -81H891V891H-81z"/><path fill="#FFF" d="M-81 -81H891V891H-81z"/><g clip-path="url(#a)"><path d="M 376.15625 578.265625 L 318.632812 578.265625 L 433.683594 175.519531 L 491.207031 175.519531 Z M 376.15625 578.265625"/></g><g clip-path="url(#b)"><path d="M 289.871094 520.730469 L 232.34375 520.730469 L 117.296875 376.890625 L 232.34375 233.054688 L 289.871094 233.054688 L 174.820312 376.890625 Z M 289.871094 520.730469"/></g><g clip-path="url(#c)"><path d="M 519.96875 520.730469 L 577.496094 520.730469 L 692.546875 376.890625 L 577.496094 233.054688 L 519.96875 233.054688 L 635.019531 376.890625 Z M 519.96875 520.730469"/></g></svg>