<svg xmlns="http://www.w3.org/2000/svg" width="810" viewBox="0 0 810 810" height="810" version="1.0"><defs><clipPath id="a"><path d="M 283 162 L 696.085938 162 L 696.085938 532 L 283 532 Z M 283 162"/></clipPath><clipPath id="b"><path d="M 165 345 L 455 345 L 455 648.859375 L 165 648.859375 Z M 165 345"/></clipPath><clipPath id="c"><path d="M 114.085938 305 L 268 305 L 268 317 L 114.085938 317 Z M 114.085938 305"/></clipPath></defs><path fill="#FFF" d="M-81 -81H891V891H-81z"/><path fill="#FFF" d="M-81 -81H891V891H-81z"/><path fill="#FFF" d="M-81 -81H891V891H-81z"/><path d="M 598.378906 235.4375 C 610.753906 235.4375 620.84375 225.347656 620.84375 212.957031 C 620.84375 200.5625 610.753906 190.480469 598.378906 190.480469 C 585.972656 190.480469 575.871094 200.5625 575.871094 212.957031 C 575.871094 225.347656 585.972656 235.4375 598.378906 235.4375 Z M 598.378906 201.402344 C 604.738281 201.402344 609.917969 206.582031 609.917969 212.949219 C 609.917969 219.324219 604.738281 224.503906 598.378906 224.503906 C 591.992188 224.503906 586.796875 219.316406 586.796875 212.949219 C 586.796875 206.582031 591.992188 201.402344 598.378906 201.402344 Z M 598.378906 201.402344"/><path d="M 548.386719 235.4375 C 560.792969 235.4375 570.882812 225.347656 570.882812 212.957031 C 570.882812 200.5625 560.792969 190.480469 548.386719 190.480469 C 535.996094 190.480469 525.910156 200.5625 525.910156 212.957031 C 525.910156 225.347656 535.992188 235.4375 548.386719 235.4375 Z M 548.386719 201.402344 C 554.761719 201.402344 559.953125 206.582031 559.953125 212.949219 C 559.953125 219.324219 554.761719 224.503906 548.386719 224.503906 C 542.015625 224.503906 536.835938 219.316406 536.835938 212.949219 C 536.835938 206.582031 542.015625 201.402344 548.386719 201.402344 Z M 548.386719 201.402344"/><path d="M 665.339844 252.1875 L 314.378906 252.1875 C 311.363281 252.1875 308.914062 254.632812 308.914062 257.652344 L 308.914062 500.160156 C 308.914062 503.175781 311.363281 505.625 314.378906 505.625 L 665.339844 505.625 C 668.355469 505.625 670.804688 503.175781 670.804688 500.160156 L 670.804688 257.652344 C 670.804688 254.632812 668.355469 252.1875 665.339844 252.1875 Z M 659.878906 494.691406 L 319.84375 494.691406 L 319.84375 263.113281 L 659.878906 263.113281 Z M 659.878906 494.691406"/><g clip-path="url(#a)"><path d="M 678.132812 162.8125 L 301.625 162.8125 C 291.578125 162.8125 283.40625 170.992188 283.40625 181.046875 L 283.40625 512.910156 C 283.40625 522.964844 291.578125 531.144531 301.625 531.144531 L 678.132812 531.144531 C 688.175781 531.144531 696.355469 522.964844 696.355469 512.910156 L 696.355469 181.046875 C 696.355469 170.992188 688.175781 162.8125 678.132812 162.8125 Z M 685.429688 512.910156 C 685.429688 516.945312 682.160156 520.21875 678.132812 520.21875 L 301.625 520.21875 C 297.601562 520.21875 294.332031 516.945312 294.332031 512.910156 L 294.332031 181.046875 C 294.332031 177.019531 297.601562 173.738281 301.625 173.738281 L 678.132812 173.738281 C 682.160156 173.738281 685.429688 177.019531 685.429688 181.046875 Z M 685.429688 512.910156"/></g><path d="M 648.355469 190.472656 C 635.949219 190.472656 625.847656 200.554688 625.847656 212.949219 C 625.847656 225.347656 635.949219 235.429688 648.355469 235.429688 C 660.730469 235.429688 670.804688 225.339844 670.804688 212.949219 C 670.804688 200.554688 660.730469 190.472656 648.355469 190.472656 Z M 648.355469 224.511719 C 641.964844 224.511719 636.773438 219.324219 636.773438 212.957031 C 636.773438 206.589844 641.964844 201.410156 648.355469 201.410156 C 654.699219 201.410156 659.878906 206.589844 659.878906 212.957031 C 659.878906 219.324219 654.699219 224.511719 648.355469 224.511719 Z M 648.355469 224.511719"/><path d="M 486.328125 342.546875 L 501.042969 351.070312 C 500.828125 353.167969 500.714844 355.179688 500.714844 357.152344 C 500.714844 360.839844 501.054688 364.511719 501.726562 368.269531 L 488.636719 375.808594 C 483.160156 379 481.292969 386.058594 484.46875 391.507812 L 497.304688 413.738281 C 500.335938 419.078125 507.902344 421.015625 513.007812 417.976562 L 527.730469 409.496094 C 532.429688 412.847656 537.550781 415.535156 542.996094 417.519531 L 542.996094 432.582031 C 542.996094 438.914062 548.148438 444.066406 554.492188 444.066406 L 580.199219 444.066406 C 586.542969 444.066406 591.707031 438.914062 591.707031 432.582031 L 591.707031 415.550781 C 596.972656 413.148438 601.839844 410.078125 606.261719 406.371094 L 619.304688 413.902344 C 621.039062 414.917969 623.019531 415.449219 625.023438 415.449219 C 629.148438 415.449219 632.976562 413.226562 635.011719 409.679688 L 647.875 387.421875 C 649.425781 384.734375 649.828125 381.59375 648.996094 378.601562 C 648.1875 375.640625 646.265625 373.195312 643.6875 371.746094 L 628.949219 363.191406 C 629.160156 361.070312 629.277344 359.074219 629.277344 357.152344 C 629.277344 353.507812 628.9375 349.773438 628.25 346 L 641.3125 338.480469 C 646.804688 335.289062 648.683594 328.222656 645.507812 322.746094 L 632.65625 300.464844 C 629.570312 295.164062 622.058594 293.289062 616.96875 296.292969 L 602.246094 304.765625 C 597.527344 301.40625 592.425781 298.71875 586.992188 296.75 L 586.992188 281.691406 C 586.992188 275.347656 581.828125 270.179688 575.484375 270.179688 L 549.765625 270.179688 C 543.433594 270.179688 538.300781 275.347656 538.300781 281.691406 L 538.300781 298.703125 C 533.046875 301.101562 528.167969 304.179688 523.730469 307.902344 L 510.671875 300.371094 C 505.359375 297.3125 498.011719 299.300781 494.953125 304.582031 L 482.117188 326.832031 C 480.582031 329.503906 480.164062 332.609375 480.964844 335.566406 C 481.746094 338.539062 483.667969 341.023438 486.328125 342.546875 Z M 491.578125 332.28125 L 504.414062 310.046875 L 505.207031 309.84375 L 521.699219 319.347656 C 523.789062 320.558594 526.417969 320.246094 528.203125 318.570312 C 533.339844 313.667969 539.296875 309.898438 545.902344 307.359375 C 548.378906 306.410156 549.816406 303.824219 549.320312 301.222656 L 549.234375 281.691406 C 549.234375 281.386719 549.488281 281.109375 549.773438 281.109375 L 575.492188 281.109375 C 575.804688 281.109375 576.074219 281.378906 576.074219 281.691406 L 576.074219 300.714844 C 576.074219 303.140625 577.683594 305.28125 580 305.960938 C 586.804688 307.933594 593.03125 311.203125 598.554688 315.671875 C 600.449219 317.199219 603.507812 316.878906 605.554688 315.457031 L 622.421875 305.761719 C 622.496094 305.761719 623.1875 305.953125 623.203125 305.945312 L 636.050781 328.207031 C 636.21875 328.507812 636.125 328.855469 635.855469 329.023438 L 619.378906 338.503906 C 617.273438 339.710938 616.21875 342.160156 616.792969 344.511719 C 617.835938 348.824219 618.359375 353.078125 618.359375 357.152344 C 618.359375 359.660156 618.117188 362.375 617.644531 365.449219 C 617.246094 368.027344 618.707031 370.527344 621.15625 371.417969 L 638.199219 381.195312 C 638.230469 381.207031 638.382812 381.953125 638.414062 381.957031 L 625.546875 404.199219 C 625.546875 404.214844 624.785156 404.441406 624.785156 404.449219 L 608.292969 394.925781 C 606.203125 393.722656 603.558594 394.023438 601.789062 395.699219 C 596.679688 400.578125 590.714844 404.339844 584.085938 406.882812 C 581.625 407.835938 580.191406 410.394531 580.671875 412.988281 C 580.699219 413.132812 580.730469 413.261719 580.773438 413.417969 L 580.773438 432.578125 C 580.773438 432.890625 580.519531 433.128906 580.191406 433.128906 L 554.484375 433.128906 C 554.171875 433.128906 553.917969 432.875 553.917969 432.578125 L 553.917969 413.5625 C 553.917969 411.136719 552.308594 409 549.992188 408.316406 C 543.15625 406.3125 536.914062 403.035156 531.421875 398.597656 C 530.410156 397.789062 529.203125 397.382812 527.976562 397.382812 C 526.753906 397.382812 525.515625 397.804688 524.503906 398.628906 C 524.386719 398.730469 524.261719 398.824219 524.144531 398.949219 L 507.546875 408.511719 C 507.488281 408.511719 506.816406 408.316406 506.78125 408.316406 L 493.917969 386.039062 C 493.765625 385.769531 493.859375 385.417969 494.097656 385.273438 L 510.605469 375.765625 C 512.695312 374.558594 513.75 372.109375 513.191406 369.753906 C 512.136719 365.40625 511.625 361.28125 511.625 357.160156 C 511.625 354.558594 511.867188 351.839844 512.351562 348.847656 C 512.769531 346.269531 511.296875 343.761719 508.863281 342.851562 C 508.695312 342.792969 508.535156 342.734375 508.355469 342.683594 L 491.769531 333.082031 C 491.535156 332.9375 491.449219 332.507812 491.578125 332.28125 Z M 491.578125 332.28125"/><path d="M 564.988281 390.699219 C 583.496094 390.699219 598.546875 375.648438 598.546875 357.152344 C 598.546875 338.640625 583.496094 323.589844 564.988281 323.589844 C 546.480469 323.589844 531.429688 338.648438 531.429688 357.152344 C 531.429688 375.648438 546.480469 390.699219 564.988281 390.699219 Z M 564.988281 334.511719 C 577.464844 334.511719 587.621094 344.664062 587.621094 357.144531 C 587.621094 369.617188 577.457031 379.765625 564.988281 379.765625 C 552.519531 379.765625 542.355469 369.617188 542.355469 357.144531 C 542.355469 344.671875 552.511719 334.511719 564.988281 334.511719 Z M 564.988281 334.511719"/><path d="M 458.800781 202.320312 L 493.503906 202.320312 L 493.503906 213.246094 L 458.800781 213.246094 Z M 458.800781 202.320312"/><path d="M 314.378906 202.320312 L 436.320312 202.320312 L 436.320312 213.246094 L 314.378906 213.246094 Z M 314.378906 202.320312"/><path d="M 355.328125 354.964844 L 365.089844 334.09375 L 393.5 342.386719 L 390.054688 368.253906 C 389.761719 370.441406 390.8125 372.589844 392.710938 373.695312 C 398.183594 376.886719 403.558594 380.632812 408.695312 384.820312 C 410.585938 386.359375 413.269531 386.46875 415.269531 385.070312 L 434.886719 371.394531 L 455.332031 392.804688 L 439.113281 413.882812 C 437.757812 415.632812 437.605469 418.011719 438.695312 419.9375 C 441.710938 425.195312 444.472656 431.015625 446.921875 437.238281 C 447.800781 439.488281 449.964844 440.882812 452.472656 440.691406 L 476.652344 438.636719 L 483.652344 467.390625 L 473.695312 471.492188 L 477.863281 481.597656 L 492.160156 475.699219 C 494.667969 474.65625 496.03125 471.953125 495.390625 469.335938 L 486.152344 431.484375 C 485.511719 428.875 483.035156 427.132812 480.375 427.351562 L 455.539062 429.464844 C 453.804688 425.363281 451.9375 421.421875 449.941406 417.707031 L 466.828125 395.765625 C 468.480469 393.628906 468.304688 390.613281 466.457031 388.660156 L 439.542969 360.460938 C 437.691406 358.507812 434.675781 358.222656 432.46875 359.753906 L 412.34375 373.785156 C 408.757812 371.03125 405.074219 368.472656 401.335938 366.148438 L 404.921875 339.195312 C 405.277344 336.519531 403.632812 333.992188 401.050781 333.234375 L 363.613281 322.308594 C 361.035156 321.554688 358.289062 322.800781 357.144531 325.242188 L 347.121094 346.675781 C 345.007812 346.414062 342.894531 346.203125 340.761719 346.058594 L 339.996094 356.957031 C 343.1875 357.179688 346.335938 357.554688 349.488281 358.054688 C 351.972656 358.457031 354.304688 357.167969 355.328125 354.964844 Z M 355.328125 354.964844"/><path d="M 365.199219 403.761719 C 370.539062 406.210938 375.675781 409.21875 380.453125 412.714844 L 386.898438 403.894531 C 381.53125 399.96875 375.761719 396.578125 369.746094 393.832031 Z M 365.199219 403.761719"/><path d="M 413.910156 463.320312 C 414.878906 467.457031 415.539062 471.929688 415.917969 476.964844 L 426.816406 476.128906 C 426.386719 470.523438 425.652344 465.527344 424.550781 460.835938 Z M 413.910156 463.320312"/><path d="M 394.621094 410.167969 L 387.308594 418.296875 C 391.691406 422.238281 395.675781 426.640625 399.179688 431.390625 L 407.972656 424.898438 C 404.039062 419.566406 399.542969 414.605469 394.621094 410.167969 Z M 394.621094 410.167969"/><path d="M 360.472656 390.15625 C 354.15625 388.019531 347.617188 386.535156 341.058594 385.753906 L 339.75 396.59375 C 345.570312 397.300781 351.367188 398.613281 356.96875 400.507812 Z M 360.472656 390.15625"/><path d="M 413.464844 433.210938 L 404.0625 438.761719 C 407.046875 443.824219 409.539062 449.230469 411.460938 454.816406 L 421.78125 451.269531 C 419.632812 444.976562 416.828125 438.898438 413.464844 433.210938 Z M 413.464844 433.210938"/><g clip-path="url(#b)"><path d="M 400.449219 592.546875 C 398.691406 591.175781 396.265625 591.023438 394.335938 592.160156 C 388.894531 595.371094 382.957031 598.234375 376.207031 600.910156 C 373.960938 601.789062 372.570312 604.046875 372.777344 606.453125 L 374.734375 629.371094 L 345.96875 636.367188 L 336.246094 612.855469 C 335.402344 610.824219 333.417969 609.492188 331.226562 609.484375 C 323.730469 609.441406 317.191406 608.945312 311.226562 607.960938 C 308.800781 607.546875 306.425781 608.820312 305.382812 611.035156 L 295.613281 631.921875 L 267.214844 623.609375 L 270.636719 597.753906 C 270.929688 595.574219 269.878906 593.441406 267.992188 592.335938 C 262.421875 589.0625 257.03125 585.296875 251.96875 581.160156 C 250.074219 579.597656 247.394531 579.511719 245.390625 580.910156 L 225.804688 594.585938 L 205.371094 573.144531 L 221.601562 552.121094 C 222.949219 550.378906 223.117188 547.988281 222.023438 546.066406 C 218.921875 540.660156 216.160156 534.832031 213.808594 528.75 C 212.933594 526.484375 210.660156 525.03125 208.242188 525.273438 L 184.066406 527.335938 L 177.066406 498.582031 L 201.722656 488.410156 C 203.792969 487.558594 205.140625 485.523438 205.109375 483.289062 C 205.023438 476.769531 205.4375 470.34375 206.339844 464.179688 C 206.691406 461.804688 205.4375 459.472656 203.253906 458.445312 L 181.488281 448.238281 L 189.777344 419.835938 L 215.714844 423.292969 C 217.953125 423.621094 220.09375 422.515625 221.1875 420.578125 C 224.609375 414.539062 228.171875 409.199219 232.066406 404.242188 C 233.554688 402.355469 233.632812 399.710938 232.257812 397.738281 L 218.804688 378.445312 L 240.203125 358.003906 L 256.972656 370.90625 L 263.644531 362.25 L 243.15625 346.480469 C 241.007812 344.820312 237.992188 344.984375 236.039062 346.859375 L 207.871094 373.800781 C 205.933594 375.664062 205.632812 378.660156 207.171875 380.867188 L 221.011719 400.71875 C 218.394531 404.25 215.933594 407.972656 213.539062 411.980469 L 186.570312 408.375 C 183.921875 408.023438 181.371094 409.671875 180.613281 412.25 L 169.6875 449.660156 C 168.921875 452.238281 170.152344 455 172.601562 456.152344 L 195.007812 466.65625 C 194.527344 470.933594 194.25 475.296875 194.183594 479.710938 L 168.566406 490.273438 C 166.074219 491.308594 164.703125 494 165.347656 496.613281 L 174.582031 534.488281 C 175.222656 537.105469 177.683594 538.890625 180.34375 538.628906 L 205.152344 536.507812 C 206.859375 540.574219 208.738281 544.515625 210.761719 548.289062 L 193.878906 570.1875 C 192.222656 572.320312 192.382812 575.335938 194.25 577.296875 L 221.148438 605.527344 C 223.007812 607.472656 226 607.769531 228.222656 606.234375 L 248.328125 592.203125 C 251.882812 594.949219 255.582031 597.515625 259.371094 599.875 L 255.800781 626.824219 C 255.441406 629.496094 257.097656 632.03125 259.675781 632.78125 L 297.101562 643.722656 C 299.6875 644.480469 302.433594 643.230469 303.578125 640.796875 L 313.597656 619.355469 C 317.957031 619.902344 322.566406 620.238281 327.5625 620.367188 L 337.703125 644.867188 C 338.5625 646.945312 340.585938 648.242188 342.75 648.242188 C 343.179688 648.242188 343.601562 648.195312 344.03125 648.085938 L 381.917969 638.871094 C 384.523438 638.230469 386.289062 635.78125 386.054688 633.101562 L 384.042969 609.519531 C 388.558594 607.605469 392.742188 605.585938 396.695312 603.414062 L 417.601562 619.535156 C 419.742188 621.191406 422.773438 621.03125 424.726562 619.136719 L 452.894531 592.21875 C 454.859375 590.351562 455.160156 587.34375 453.621094 585.128906 L 439.78125 565.277344 C 443.023438 560.855469 446.113281 556.039062 448.972656 550.945312 L 439.453125 545.59375 C 436.15625 551.476562 432.542969 556.921875 428.738281 561.765625 C 427.246094 563.660156 427.171875 566.289062 428.558594 568.269531 L 441.972656 587.527344 L 420.550781 608.011719 Z M 400.449219 592.546875"/></g><path d="M 350.953125 567.6875 C 304.945312 578.871094 258.292969 549.96875 246.941406 503.316406 C 240.359375 476.179688 246.746094 448.296875 264.488281 426.8125 L 256.070312 419.855469 C 236.402344 443.671875 229.015625 475.835938 236.328125 505.902344 C 247.242188 550.773438 287.214844 581.019531 330.964844 581.019531 C 338.417969 581.019531 345.992188 580.144531 353.539062 578.308594 C 370.851562 574.085938 386.671875 565.023438 399.28125 552.097656 L 391.472656 544.464844 C 380.277344 555.90625 366.261719 563.945312 350.953125 567.6875 Z M 350.953125 567.6875"/><path d="M 201.46875 278.003906 L 267.191406 278.003906 L 267.191406 288.933594 L 201.46875 288.933594 Z M 201.46875 278.003906"/><path d="M 159.132812 278.003906 L 187.226562 278.003906 L 187.226562 288.933594 L 159.132812 288.933594 Z M 159.132812 278.003906"/><g clip-path="url(#c)"><path d="M 114.4375 305.71875 L 267.199219 305.71875 L 267.199219 316.644531 L 114.4375 316.644531 Z M 114.4375 305.71875"/></g><path d="M 170.628906 248.105469 L 184.734375 248.105469 L 184.734375 259.035156 L 170.628906 259.035156 Z M 170.628906 248.105469"/><path d="M 204.257812 248.105469 L 233.546875 248.105469 L 233.546875 259.035156 L 204.257812 259.035156 Z M 204.257812 248.105469"/><path d="M 253.082031 248.105469 L 267.199219 248.105469 L 267.199219 259.035156 L 253.082031 259.035156 Z M 253.082031 248.105469"/></svg>