<svg xmlns="http://www.w3.org/2000/svg" width="810" viewBox="0 0 810 810" height="810" version="1.0"><defs><clipPath id="a"><path d="M 397 390 L 559.667969 390 L 559.667969 552 L 397 552 Z M 397 390"/></clipPath><clipPath id="b"><path d="M 250.667969 169.824219 L 531 169.824219 L 531 640.074219 L 250.667969 640.074219 Z M 250.667969 169.824219"/></clipPath></defs><path fill="#FFF" d="M-81 -81H891V891H-81z"/><path fill="#FFF" d="M-81 -81H891V891H-81z"/><path fill="#FFF" d="M-81 -81H891V891H-81z"/><path d="M 471.382812 287.390625 C 479.496094 287.390625 486.09375 293.980469 486.09375 302.085938 L 486.09375 346.167969 C 486.09375 354.273438 479.496094 360.863281 471.382812 360.863281 L 427.238281 360.863281 C 419.125 360.863281 412.523438 354.273438 412.523438 346.167969 L 412.523438 302.085938 C 412.523438 293.980469 419.125 287.390625 427.238281 287.390625 L 471.382812 287.390625 M 471.382812 272.695312 L 427.238281 272.695312 C 410.984375 272.695312 397.808594 285.851562 397.808594 302.085938 L 397.808594 346.167969 C 397.808594 362.402344 410.984375 375.558594 427.238281 375.558594 L 471.382812 375.558594 C 487.632812 375.558594 500.808594 362.402344 500.808594 346.167969 L 500.808594 302.085938 C 500.808594 285.851562 487.632812 272.695312 471.382812 272.695312 Z M 471.382812 272.695312"/><path d="M 528.8125 463.648438 C 525.375 463.144531 521.945312 462.648438 518.519531 462.152344 C 518.074219 462.082031 517.78125 461.984375 517.664062 461.464844 C 516.699219 457.367188 515.066406 453.550781 512.839844 449.988281 C 512.621094 449.636719 512.628906 449.425781 512.878906 449.082031 C 514.9375 446.300781 516.976562 443.496094 519.023438 440.691406 C 519.726562 439.742188 519.679688 439.128906 518.824219 438.304688 C 516.125 435.648438 513.429688 433.015625 510.734375 430.375 C 510.304688 429.960938 509.921875 429.753906 509.523438 429.753906 C 509.167969 429.753906 508.800781 429.917969 508.367188 430.25 C 505.640625 432.316406 502.894531 434.386719 500.183594 436.484375 C 499.960938 436.652344 499.253906 436.664062 499.042969 436.535156 C 495.734375 434.566406 492.191406 433.113281 488.441406 432.226562 C 487.9375 432.101562 487.738281 431.882812 487.667969 431.382812 C 487.191406 427.945312 486.679688 424.523438 486.175781 421.097656 C 486.03125 420.09375 485.539062 419.644531 484.542969 419.644531 C 480.664062 419.644531 476.800781 419.644531 472.925781 419.644531 C 471.953125 419.644531 471.4375 420.09375 471.292969 421.039062 C 470.792969 424.496094 470.285156 427.933594 469.804688 431.386719 C 469.734375 431.863281 469.5625 432.085938 469.078125 432.207031 C 465.007812 433.179688 461.1875 434.785156 457.644531 437.003906 C 457.464844 437.113281 456.875 437.105469 456.691406 436.976562 C 453.902344 434.90625 451.105469 432.863281 448.292969 430.835938 C 447.886719 430.539062 447.511719 430.378906 447.152344 430.378906 C 446.761719 430.390625 446.378906 430.59375 445.976562 430.992188 C 443.308594 433.675781 440.664062 436.402344 438.003906 439.105469 C 437.175781 439.945312 437.152344 440.570312 437.863281 441.507812 C 439.964844 444.269531 442.058594 447.027344 444.1875 449.777344 C 444.4375 450.105469 444.421875 450.328125 444.21875 450.667969 C 442.210938 454.042969 440.707031 457.632812 439.8125 461.464844 C 439.6875 461.992188 439.394531 462.089844 438.960938 462.148438 C 435.519531 462.644531 432.097656 463.144531 428.660156 463.648438 C 427.679688 463.789062 427.238281 464.292969 427.238281 465.3125 C 427.238281 469.160156 427.238281 473 427.238281 476.851562 C 427.238281 477.863281 427.667969 478.371094 428.660156 478.511719 C 432.097656 479.019531 435.527344 479.515625 438.957031 480.011719 C 439.40625 480.070312 439.679688 480.175781 439.808594 480.695312 C 440.773438 484.792969 442.410156 488.609375 444.636719 492.171875 C 444.855469 492.523438 444.84375 492.734375 444.59375 493.078125 C 442.539062 495.851562 440.496094 498.664062 438.449219 501.46875 C 437.75 502.417969 437.800781 503.035156 438.652344 503.867188 C 441.347656 506.511719 444.046875 509.148438 446.742188 511.785156 C 447.175781 512.199219 447.5625 512.410156 447.960938 512.410156 C 448.316406 512.410156 448.679688 512.242188 449.109375 511.914062 C 451.835938 509.84375 454.578125 507.777344 457.292969 505.679688 C 457.511719 505.507812 458.226562 505.5 458.441406 505.628906 C 461.742188 507.597656 465.28125 509.046875 469.039062 509.9375 C 469.542969 510.0625 469.738281 510.277344 469.808594 510.777344 C 470.289062 514.214844 470.796875 517.636719 471.292969 521.0625 C 471.441406 522.066406 471.9375 522.511719 472.925781 522.511719 C 476.808594 522.511719 480.667969 522.511719 484.546875 522.511719 C 485.519531 522.511719 486.03125 522.0625 486.175781 521.121094 C 486.683594 517.667969 487.183594 514.222656 487.675781 510.769531 C 487.738281 510.351562 487.835938 510.085938 488.347656 509.964844 C 492.460938 508.996094 496.296875 507.363281 499.886719 505.128906 C 500.039062 505.027344 500.5625 505.039062 500.726562 505.15625 C 503.523438 507.21875 506.324219 509.25 509.132812 511.304688 C 509.589844 511.636719 509.960938 511.804688 510.3125 511.804688 C 510.726562 511.804688 511.117188 511.570312 511.582031 511.09375 C 514.21875 508.414062 516.839844 505.742188 519.472656 503.054688 C 520.300781 502.21875 520.328125 501.589844 519.613281 500.652344 C 517.515625 497.898438 515.417969 495.132812 513.292969 492.382812 C 513.042969 492.054688 513.046875 491.832031 513.25 491.492188 C 515.25 488.15625 516.738281 484.597656 517.644531 480.816406 C 517.773438 480.257812 518.035156 480.070312 518.574219 479.996094 C 521.996094 479.515625 525.402344 479.019531 528.816406 478.515625 C 529.78125 478.375 530.234375 477.867188 530.234375 476.917969 C 530.238281 473.03125 530.238281 469.136719 530.234375 465.25 C 530.234375 464.292969 529.773438 463.789062 528.8125 463.648438 Z M 478.738281 495.636719 C 465.160156 495.636719 454.148438 484.640625 454.148438 471.078125 C 454.148438 457.515625 465.15625 446.519531 478.738281 446.519531 C 492.316406 446.519531 503.328125 457.515625 503.328125 471.078125 C 503.328125 484.640625 492.316406 495.636719 478.738281 495.636719 Z M 478.738281 495.636719"/><path d="M 338.953125 213.914062 L 397.808594 213.914062 C 401.871094 213.914062 405.167969 210.621094 405.167969 206.566406 C 405.167969 202.511719 401.871094 199.21875 397.808594 199.21875 L 338.953125 199.21875 C 334.886719 199.21875 331.59375 202.511719 331.59375 206.566406 C 331.59375 210.621094 334.886719 213.914062 338.953125 213.914062 Z M 338.953125 213.914062"/><path d="M 427.238281 213.914062 L 441.953125 213.914062 C 446.011719 213.914062 449.308594 210.621094 449.308594 206.566406 C 449.308594 202.511719 446.011719 199.21875 441.953125 199.21875 L 427.238281 199.21875 C 423.171875 199.21875 419.882812 202.511719 419.882812 206.566406 C 419.882812 210.621094 423.171875 213.914062 427.238281 213.914062 Z M 427.238281 213.914062"/><path d="M 353.667969 287.390625 C 361.78125 287.390625 368.382812 293.980469 368.382812 302.085938 L 368.382812 346.167969 C 368.382812 354.273438 361.78125 360.863281 353.667969 360.863281 L 309.523438 360.863281 C 301.410156 360.863281 294.808594 354.273438 294.808594 346.167969 L 294.808594 302.085938 C 294.808594 293.980469 301.410156 287.390625 309.523438 287.390625 L 353.667969 287.390625 M 353.667969 272.695312 L 309.523438 272.695312 C 293.273438 272.695312 280.09375 285.851562 280.09375 302.085938 L 280.09375 346.167969 C 280.09375 362.402344 293.273438 375.558594 309.523438 375.558594 L 353.667969 375.558594 C 369.917969 375.558594 383.09375 362.402344 383.09375 346.167969 L 383.09375 302.085938 C 383.09375 285.851562 369.917969 272.695312 353.667969 272.695312 Z M 353.667969 272.695312"/><path d="M 353.667969 404.949219 C 361.78125 404.949219 368.382812 411.542969 368.382812 419.644531 L 368.382812 463.730469 C 368.382812 471.835938 361.78125 478.425781 353.667969 478.425781 L 309.523438 478.425781 C 301.410156 478.425781 294.808594 471.835938 294.808594 463.730469 L 294.808594 419.644531 C 294.808594 411.542969 301.410156 404.949219 309.523438 404.949219 L 353.667969 404.949219 M 353.667969 390.253906 L 309.523438 390.253906 C 293.273438 390.253906 280.09375 403.414062 280.09375 419.644531 L 280.09375 463.730469 C 280.09375 479.960938 293.273438 493.121094 309.523438 493.121094 L 353.667969 493.121094 C 369.917969 493.121094 383.09375 479.960938 383.09375 463.730469 L 383.09375 419.644531 C 383.09375 403.414062 369.917969 390.253906 353.667969 390.253906 Z M 353.667969 390.253906"/><g clip-path="url(#a)"><path d="M 530.238281 404.949219 C 538.351562 404.949219 544.953125 411.542969 544.953125 419.644531 L 544.953125 522.511719 C 544.953125 530.617188 538.351562 537.207031 530.238281 537.207031 L 427.238281 537.207031 C 419.125 537.207031 412.523438 530.617188 412.523438 522.511719 L 412.523438 419.644531 C 412.523438 411.542969 419.125 404.949219 427.238281 404.949219 L 530.238281 404.949219 M 530.238281 390.253906 L 427.238281 390.253906 C 410.984375 390.253906 397.808594 403.414062 397.808594 419.644531 L 397.808594 522.511719 C 397.808594 538.742188 410.984375 551.902344 427.238281 551.902344 L 530.238281 551.902344 C 546.488281 551.902344 559.667969 538.742188 559.667969 522.511719 L 559.667969 419.644531 C 559.667969 403.414062 546.488281 390.253906 530.238281 390.253906 Z M 530.238281 390.253906"/></g><path d="M 353.667969 610.683594 L 427.238281 610.683594 C 431.300781 610.683594 434.59375 607.390625 434.59375 603.335938 C 434.59375 599.28125 431.300781 595.988281 427.238281 595.988281 L 353.667969 595.988281 C 349.601562 595.988281 346.308594 599.28125 346.308594 603.335938 C 346.308594 607.390625 349.601562 610.683594 353.667969 610.683594 Z M 353.667969 610.683594"/><g clip-path="url(#b)"><path d="M 530.238281 375.558594 L 530.238281 199.21875 C 530.238281 182.988281 516.886719 169.828125 500.417969 169.828125 L 280.484375 169.828125 C 264.019531 169.828125 250.667969 182.988281 250.667969 199.21875 L 250.667969 610.683594 C 250.667969 626.914062 264.019531 640.074219 280.484375 640.074219 L 500.414062 640.074219 C 516.882812 640.074219 530.234375 626.914062 530.234375 610.683594 L 530.234375 566.597656 L 265.382812 566.597656 L 265.382812 243.304688 L 515.523438 243.304688 L 515.523438 375.558594 Z M 515.523438 581.292969 L 515.523438 610.683594 C 515.523438 618.789062 508.746094 625.378906 500.417969 625.378906 L 280.484375 625.378906 C 272.152344 625.378906 265.382812 618.789062 265.382812 610.683594 L 265.382812 581.292969 Z M 265.382812 228.609375 L 265.382812 199.21875 C 265.382812 191.113281 272.15625 184.523438 280.484375 184.523438 L 500.414062 184.523438 C 508.746094 184.523438 515.523438 191.113281 515.523438 199.21875 L 515.523438 228.609375 Z M 265.382812 228.609375"/></g></svg>