<svg xmlns="http://www.w3.org/2000/svg" width="810" viewBox="0 0 810 810" height="810" version="1.0"><defs><clipPath id="a"><path d="M 466 159 L 676.65625 159 L 676.65625 370 L 466 370 Z M 466 159"/></clipPath><clipPath id="b"><path d="M 158.40625 159 L 370 159 L 370 370 L 158.40625 370 Z M 158.40625 159"/></clipPath><clipPath id="c"><path d="M 158.40625 299 L 676.65625 299 L 676.65625 628.414062 L 158.40625 628.414062 Z M 158.40625 299"/></clipPath></defs><path fill="#FFF" d="M-81 -81H891V891H-81z"/><path fill="#FFF" d="M-81 -81H891V891H-81z"/><path fill="#FFF" d="M-81 -81H891V891H-81z"/><g clip-path="url(#a)"><path d="M 658.585938 240.304688 L 651.109375 240.304688 C 649.519531 235.058594 647.429688 230.023438 644.84375 225.191406 L 650.136719 219.898438 C 650.546875 219.460938 650.933594 219.003906 651.296875 218.527344 C 651.660156 218.054688 651.996094 217.5625 652.3125 217.054688 C 652.628906 216.542969 652.917969 216.023438 653.179688 215.484375 C 653.445312 214.949219 653.683594 214.398438 653.890625 213.839844 C 654.101562 213.28125 654.285156 212.710938 654.4375 212.132812 C 654.59375 211.554688 654.71875 210.972656 654.816406 210.382812 C 654.914062 209.792969 654.980469 209.199219 655.019531 208.601562 C 655.058594 208.003906 655.070312 207.40625 655.046875 206.808594 C 655.027344 206.210938 654.980469 205.617188 654.902344 205.023438 C 654.824219 204.429688 654.71875 203.84375 654.582031 203.261719 C 654.445312 202.679688 654.28125 202.105469 654.089844 201.539062 C 653.898438 200.972656 653.679688 200.414062 653.433594 199.871094 C 653.1875 199.324219 652.914062 198.792969 652.617188 198.277344 C 652.316406 197.757812 651.992188 197.253906 651.644531 196.769531 C 651.296875 196.28125 650.925781 195.8125 650.535156 195.363281 C 650.140625 194.914062 649.726562 194.484375 649.289062 194.074219 L 641.648438 186.4375 C 641.238281 186 640.808594 185.589844 640.355469 185.195312 C 639.90625 184.804688 639.4375 184.433594 638.949219 184.085938 C 638.464844 183.742188 637.960938 183.417969 637.441406 183.121094 C 636.921875 182.824219 636.390625 182.550781 635.847656 182.304688 C 635.300781 182.0625 634.746094 181.84375 634.179688 181.652344 C 633.613281 181.460938 633.039062 181.296875 632.457031 181.160156 C 631.875 181.027344 631.285156 180.917969 630.695312 180.84375 C 630.101562 180.765625 629.503906 180.714844 628.910156 180.695312 C 628.3125 180.675781 627.714844 180.6875 627.117188 180.722656 C 626.519531 180.761719 625.925781 180.832031 625.335938 180.925781 C 624.746094 181.023438 624.164062 181.148438 623.585938 181.304688 C 623.007812 181.457031 622.4375 181.636719 621.878906 181.847656 C 621.320312 182.058594 620.769531 182.292969 620.234375 182.554688 C 619.695312 182.820312 619.171875 183.105469 618.664062 183.421875 C 618.15625 183.734375 617.664062 184.074219 617.1875 184.433594 C 616.710938 184.796875 616.253906 185.179688 615.816406 185.585938 L 610.523438 190.882812 C 605.6875 188.296875 600.648438 186.207031 595.402344 184.617188 L 595.402344 177.140625 C 595.382812 176.542969 595.332031 175.949219 595.253906 175.355469 C 595.171875 174.761719 595.066406 174.175781 594.929688 173.59375 C 594.792969 173.011719 594.625 172.4375 594.433594 171.871094 C 594.242188 171.304688 594.019531 170.746094 593.773438 170.203125 C 593.523438 169.660156 593.25 169.128906 592.949219 168.609375 C 592.652344 168.089844 592.328125 167.589844 591.976562 167.105469 C 591.628906 166.617188 591.257812 166.148438 590.863281 165.699219 C 590.46875 165.25 590.050781 164.820312 589.613281 164.414062 C 589.175781 164.003906 588.722656 163.617188 588.246094 163.253906 C 587.769531 162.890625 587.28125 162.550781 586.769531 162.234375 C 586.261719 161.917969 585.742188 161.628906 585.203125 161.363281 C 584.667969 161.097656 584.117188 160.859375 583.558594 160.648438 C 583 160.4375 582.429688 160.253906 581.851562 160.101562 C 581.273438 159.945312 580.6875 159.816406 580.097656 159.71875 C 579.507812 159.621094 578.914062 159.554688 578.316406 159.515625 C 577.71875 159.472656 577.121094 159.464844 576.523438 159.480469 L 565.769531 159.480469 C 565.171875 159.464844 564.574219 159.472656 563.976562 159.515625 C 563.382812 159.554688 562.789062 159.621094 562.195312 159.71875 C 561.605469 159.816406 561.023438 159.945312 560.445312 160.101562 C 559.867188 160.253906 559.296875 160.4375 558.738281 160.648438 C 558.175781 160.859375 557.628906 161.097656 557.09375 161.363281 C 556.554688 161.628906 556.03125 161.917969 555.523438 162.234375 C 555.015625 162.550781 554.523438 162.890625 554.050781 163.253906 C 553.574219 163.617188 553.117188 164.003906 552.683594 164.414062 C 552.246094 164.820312 551.828125 165.25 551.433594 165.699219 C 551.039062 166.148438 550.667969 166.617188 550.316406 167.105469 C 549.96875 167.589844 549.644531 168.089844 549.34375 168.609375 C 549.046875 169.128906 548.769531 169.660156 548.523438 170.203125 C 548.277344 170.746094 548.054688 171.304688 547.863281 171.871094 C 547.667969 172.4375 547.503906 173.011719 547.367188 173.59375 C 547.230469 174.175781 547.121094 174.761719 547.042969 175.355469 C 546.964844 175.949219 546.914062 176.542969 546.894531 177.140625 L 546.894531 184.617188 C 541.644531 186.203125 536.605469 188.289062 531.773438 190.882812 L 526.679688 185.585938 C 526.242188 185.179688 525.785156 184.796875 525.308594 184.433594 C 524.832031 184.074219 524.339844 183.734375 523.832031 183.421875 C 523.324219 183.105469 522.800781 182.820312 522.265625 182.554688 C 521.726562 182.292969 521.179688 182.058594 520.617188 181.847656 C 520.058594 181.636719 519.488281 181.457031 518.914062 181.304688 C 518.335938 181.148438 517.75 181.023438 517.160156 180.925781 C 516.570312 180.832031 515.976562 180.761719 515.382812 180.722656 C 514.785156 180.6875 514.1875 180.675781 513.589844 180.695312 C 512.992188 180.714844 512.398438 180.765625 511.804688 180.84375 C 511.210938 180.917969 510.625 181.027344 510.042969 181.160156 C 509.460938 181.296875 508.886719 181.460938 508.320312 181.652344 C 507.753906 181.84375 507.195312 182.0625 506.652344 182.304688 C 506.105469 182.550781 505.574219 182.824219 505.054688 183.121094 C 504.539062 183.417969 504.035156 183.742188 503.546875 184.085938 C 503.0625 184.433594 502.589844 184.804688 502.140625 185.195312 C 501.691406 185.589844 501.257812 186 500.847656 186.4375 L 493.25 194.035156 C 492.800781 194.441406 492.375 194.867188 491.96875 195.320312 C 491.5625 195.769531 491.179688 196.234375 490.824219 196.722656 C 490.464844 197.210938 490.128906 197.714844 489.820312 198.234375 C 489.511719 198.753906 489.226562 199.289062 488.972656 199.835938 C 488.714844 200.382812 488.488281 200.945312 488.285156 201.515625 C 488.085938 202.085938 487.914062 202.664062 487.769531 203.253906 C 487.625 203.839844 487.511719 204.433594 487.425781 205.03125 C 487.339844 205.632812 487.285156 206.234375 487.261719 206.839844 C 487.234375 207.441406 487.238281 208.046875 487.273438 208.652344 C 487.308594 209.253906 487.375 209.855469 487.46875 210.453125 C 487.5625 211.050781 487.683594 211.644531 487.835938 212.230469 C 487.988281 212.816406 488.171875 213.390625 488.378906 213.957031 C 488.589844 214.527344 488.828125 215.082031 489.089844 215.625 C 489.355469 216.171875 489.648438 216.699219 489.964844 217.214844 C 490.28125 217.730469 490.621094 218.230469 490.988281 218.710938 C 491.355469 219.191406 491.746094 219.65625 492.15625 220.097656 L 497.453125 225.394531 C 494.875 230.15625 492.789062 235.128906 491.1875 240.304688 L 483.707031 240.304688 C 483.109375 240.324219 482.515625 240.375 481.921875 240.453125 C 481.328125 240.535156 480.742188 240.640625 480.15625 240.777344 C 479.574219 240.914062 479 241.082031 478.433594 241.273438 C 477.867188 241.464844 477.3125 241.6875 476.765625 241.933594 C 476.222656 242.183594 475.691406 242.457031 475.171875 242.753906 C 474.65625 243.054688 474.152344 243.378906 473.667969 243.726562 C 473.179688 244.078125 472.710938 244.449219 472.261719 244.84375 C 471.8125 245.238281 471.382812 245.65625 470.976562 246.089844 C 470.566406 246.527344 470.179688 246.984375 469.816406 247.457031 C 469.449219 247.933594 469.109375 248.425781 468.792969 248.933594 C 468.480469 249.441406 468.1875 249.964844 467.921875 250.5 C 467.660156 251.035156 467.421875 251.585938 467.210938 252.144531 C 467 252.703125 466.816406 253.273438 466.660156 253.851562 C 466.503906 254.429688 466.378906 255.011719 466.28125 255.601562 C 466.183594 256.191406 466.113281 256.785156 466.074219 257.382812 C 466.035156 257.980469 466.023438 258.578125 466.042969 259.175781 L 466.042969 269.925781 C 466.023438 270.523438 466.035156 271.121094 466.074219 271.71875 C 466.113281 272.316406 466.183594 272.910156 466.28125 273.5 C 466.378906 274.089844 466.503906 274.671875 466.660156 275.25 C 466.816406 275.828125 467 276.398438 467.210938 276.957031 C 467.421875 277.515625 467.660156 278.066406 467.921875 278.601562 C 468.1875 279.136719 468.480469 279.660156 468.792969 280.167969 C 469.109375 280.675781 469.449219 281.167969 469.816406 281.644531 C 470.179688 282.117188 470.566406 282.574219 470.976562 283.011719 C 471.382812 283.445312 471.8125 283.863281 472.261719 284.257812 C 472.710938 284.652344 473.179688 285.023438 473.667969 285.375 C 474.152344 285.722656 474.65625 286.046875 475.171875 286.347656 C 475.691406 286.644531 476.222656 286.917969 476.765625 287.167969 C 477.3125 287.414062 477.867188 287.636719 478.433594 287.828125 C 479 288.019531 479.574219 288.1875 480.15625 288.324219 C 480.742188 288.460938 481.328125 288.566406 481.921875 288.648438 C 482.515625 288.726562 483.109375 288.777344 483.707031 288.796875 L 491.1875 288.796875 C 492.777344 294.042969 494.867188 299.078125 497.453125 303.910156 L 492.117188 309.246094 C 491.710938 309.683594 491.324219 310.140625 490.964844 310.617188 C 490.601562 311.089844 490.261719 311.582031 489.949219 312.089844 C 489.636719 312.601562 489.347656 313.121094 489.082031 313.660156 C 488.820312 314.195312 488.585938 314.746094 488.375 315.304688 C 488.164062 315.863281 487.984375 316.433594 487.832031 317.011719 C 487.675781 317.589844 487.550781 318.171875 487.453125 318.761719 C 487.359375 319.351562 487.289062 319.945312 487.25 320.539062 C 487.214844 321.136719 487.203125 321.734375 487.222656 322.332031 C 487.242188 322.929688 487.292969 323.523438 487.371094 324.117188 C 487.445312 324.707031 487.554688 325.296875 487.6875 325.878906 C 487.824219 326.460938 487.988281 327.035156 488.179688 327.601562 C 488.371094 328.167969 488.589844 328.722656 488.835938 329.265625 C 489.078125 329.8125 489.351562 330.34375 489.648438 330.863281 C 489.945312 331.378906 490.269531 331.882812 490.617188 332.371094 C 490.960938 332.855469 491.332031 333.324219 491.726562 333.777344 C 492.117188 334.226562 492.53125 334.65625 492.964844 335.066406 L 500.605469 342.707031 C 501.015625 343.140625 501.449219 343.550781 501.898438 343.941406 C 502.351562 344.335938 502.820312 344.703125 503.308594 345.046875 C 503.796875 345.394531 504.296875 345.714844 504.816406 346.011719 C 505.335938 346.308594 505.867188 346.578125 506.414062 346.824219 C 506.957031 347.070312 507.511719 347.285156 508.078125 347.476562 C 508.644531 347.667969 509.21875 347.832031 509.800781 347.964844 C 510.382812 348.101562 510.972656 348.207031 511.5625 348.285156 C 512.15625 348.363281 512.75 348.410156 513.347656 348.429688 C 513.945312 348.449219 514.542969 348.441406 515.136719 348.402344 C 515.734375 348.363281 516.328125 348.296875 516.917969 348.199219 C 517.507812 348.101562 518.089844 347.976562 518.667969 347.824219 C 519.246094 347.671875 519.8125 347.492188 520.375 347.28125 C 520.933594 347.074219 521.480469 346.839844 522.019531 346.578125 C 522.554688 346.316406 523.078125 346.027344 523.589844 345.714844 C 524.097656 345.402344 524.589844 345.066406 525.066406 344.703125 C 525.542969 344.34375 526 343.960938 526.4375 343.554688 L 531.734375 338.261719 C 536.582031 340.835938 541.632812 342.910156 546.894531 344.484375 L 546.894531 351.960938 C 546.914062 352.558594 546.964844 353.152344 547.042969 353.746094 C 547.121094 354.339844 547.230469 354.925781 547.367188 355.507812 C 547.503906 356.089844 547.667969 356.664062 547.863281 357.230469 C 548.054688 357.796875 548.277344 358.355469 548.523438 358.898438 C 548.769531 359.441406 549.046875 359.972656 549.34375 360.492188 C 549.644531 361.011719 549.96875 361.511719 550.316406 361.996094 C 550.667969 362.484375 551.039062 362.953125 551.433594 363.402344 C 551.828125 363.851562 552.246094 364.28125 552.683594 364.6875 C 553.117188 365.097656 553.574219 365.484375 554.050781 365.847656 C 554.523438 366.210938 555.015625 366.550781 555.523438 366.867188 C 556.03125 367.183594 556.554688 367.472656 557.09375 367.738281 C 557.628906 368.003906 558.175781 368.242188 558.738281 368.453125 C 559.296875 368.664062 559.867188 368.847656 560.445312 369 C 561.023438 369.15625 561.605469 369.285156 562.195312 369.382812 C 562.789062 369.480469 563.382812 369.546875 563.976562 369.589844 C 564.574219 369.628906 565.171875 369.636719 565.769531 369.621094 L 576.523438 369.621094 C 577.121094 369.636719 577.71875 369.628906 578.316406 369.589844 C 578.914062 369.546875 579.507812 369.480469 580.097656 369.382812 C 580.6875 369.285156 581.273438 369.15625 581.851562 369 C 582.429688 368.847656 583 368.664062 583.558594 368.453125 C 584.117188 368.242188 584.667969 368.003906 585.203125 367.738281 C 585.742188 367.472656 586.261719 367.183594 586.769531 366.867188 C 587.28125 366.550781 587.769531 366.210938 588.246094 365.847656 C 588.722656 365.484375 589.175781 365.097656 589.613281 364.6875 C 590.050781 364.28125 590.46875 363.851562 590.863281 363.402344 C 591.257812 362.953125 591.628906 362.484375 591.976562 361.996094 C 592.328125 361.511719 592.652344 361.011719 592.949219 360.492188 C 593.25 359.972656 593.523438 359.441406 593.773438 358.898438 C 594.019531 358.355469 594.242188 357.796875 594.433594 357.230469 C 594.625 356.664062 594.792969 356.089844 594.929688 355.507812 C 595.066406 354.925781 595.171875 354.339844 595.253906 353.746094 C 595.332031 353.152344 595.382812 352.558594 595.402344 351.960938 L 595.402344 344.484375 C 600.648438 342.894531 605.691406 340.808594 610.523438 338.21875 L 615.859375 343.554688 C 616.296875 343.960938 616.753906 344.339844 617.230469 344.703125 C 617.707031 345.0625 618.203125 345.398438 618.710938 345.710938 C 619.222656 346.023438 619.746094 346.308594 620.28125 346.570312 C 620.820312 346.832031 621.367188 347.066406 621.929688 347.273438 C 622.488281 347.480469 623.058594 347.660156 623.636719 347.8125 C 624.214844 347.964844 624.796875 348.089844 625.386719 348.183594 C 625.976562 348.28125 626.570312 348.347656 627.167969 348.382812 C 627.761719 348.421875 628.359375 348.429688 628.957031 348.410156 C 629.554688 348.390625 630.148438 348.339844 630.742188 348.261719 C 631.332031 348.183594 631.921875 348.074219 632.503906 347.941406 C 633.085938 347.804688 633.65625 347.640625 634.222656 347.449219 C 634.789062 347.257812 635.34375 347.039062 635.890625 346.792969 C 636.433594 346.546875 636.964844 346.277344 637.484375 345.976562 C 638.003906 345.679688 638.503906 345.359375 638.992188 345.011719 C 639.476562 344.664062 639.945312 344.296875 640.398438 343.90625 C 640.847656 343.511719 641.277344 343.097656 641.691406 342.664062 L 649.289062 335.027344 C 649.722656 334.617188 650.136719 334.1875 650.53125 333.734375 C 650.921875 333.285156 651.292969 332.816406 651.640625 332.328125 C 651.988281 331.84375 652.308594 331.339844 652.605469 330.820312 C 652.902344 330.304688 653.175781 329.773438 653.421875 329.226562 C 653.667969 328.683594 653.886719 328.125 654.078125 327.558594 C 654.269531 326.996094 654.429688 326.421875 654.566406 325.835938 C 654.703125 325.253906 654.808594 324.667969 654.886719 324.074219 C 654.964844 323.484375 655.011719 322.886719 655.03125 322.289062 C 655.050781 321.695312 655.042969 321.097656 655.003906 320.5 C 654.964844 319.902344 654.898438 319.3125 654.800781 318.722656 C 654.703125 318.132812 654.578125 317.546875 654.425781 316.96875 C 654.269531 316.390625 654.089844 315.824219 653.878906 315.265625 C 653.671875 314.703125 653.433594 314.15625 653.171875 313.621094 C 652.910156 313.082031 652.621094 312.558594 652.304688 312.050781 C 651.992188 311.542969 651.652344 311.050781 651.292969 310.574219 C 650.929688 310.101562 650.546875 309.644531 650.136719 309.203125 L 644.84375 303.910156 C 647.429688 299.078125 649.519531 294.042969 651.109375 288.796875 L 658.585938 288.796875 C 659.1875 288.777344 659.78125 288.726562 660.375 288.648438 C 660.96875 288.566406 661.554688 288.460938 662.136719 288.324219 C 662.722656 288.1875 663.296875 288.019531 663.863281 287.828125 C 664.429688 287.636719 664.984375 287.414062 665.527344 287.167969 C 666.074219 286.917969 666.605469 286.644531 667.121094 286.347656 C 667.640625 286.046875 668.144531 285.722656 668.628906 285.375 C 669.117188 285.023438 669.582031 284.652344 670.03125 284.257812 C 670.484375 283.863281 670.910156 283.445312 671.320312 283.011719 C 671.730469 282.574219 672.117188 282.117188 672.480469 281.644531 C 672.84375 281.167969 673.183594 280.675781 673.5 280.167969 C 673.816406 279.660156 674.109375 279.136719 674.371094 278.601562 C 674.636719 278.066406 674.875 277.515625 675.085938 276.957031 C 675.296875 276.398438 675.480469 275.828125 675.636719 275.25 C 675.789062 274.671875 675.917969 274.089844 676.015625 273.5 C 676.113281 272.910156 676.183594 272.316406 676.222656 271.71875 C 676.261719 271.121094 676.273438 270.523438 676.253906 269.925781 L 676.253906 259.175781 C 676.273438 258.578125 676.261719 257.980469 676.222656 257.382812 C 676.183594 256.785156 676.113281 256.191406 676.015625 255.601562 C 675.917969 255.011719 675.789062 254.429688 675.636719 253.851562 C 675.480469 253.273438 675.296875 252.703125 675.085938 252.144531 C 674.875 251.585938 674.636719 251.035156 674.371094 250.5 C 674.109375 249.964844 673.816406 249.441406 673.5 248.933594 C 673.183594 248.425781 672.84375 247.933594 672.480469 247.457031 C 672.117188 246.984375 671.730469 246.527344 671.320312 246.089844 C 670.914062 245.65625 670.484375 245.238281 670.03125 244.84375 C 669.582031 244.449219 669.117188 244.078125 668.628906 243.726562 C 668.144531 243.378906 667.640625 243.054688 667.121094 242.753906 C 666.605469 242.457031 666.074219 242.183594 665.527344 241.933594 C 664.984375 241.6875 664.429688 241.464844 663.863281 241.273438 C 663.296875 241.082031 662.722656 240.914062 662.136719 240.777344 C 661.554688 240.640625 660.96875 240.535156 660.375 240.453125 C 659.78125 240.375 659.1875 240.324219 658.585938 240.304688 Z M 660.082031 269.925781 C 660.082031 271.621094 659.113281 272.632812 658.585938 272.632812 L 638.375 272.632812 L 637 278.976562 C 635.230469 286.847656 632.144531 294.160156 627.742188 300.921875 L 624.226562 306.375 L 638.535156 320.679688 C 638.902344 321.046875 638.859375 322.5 637.6875 323.671875 L 630.085938 331.269531 C 628.875 332.441406 627.460938 332.480469 627.097656 332.117188 L 612.785156 317.773438 L 607.53125 321.125 C 600.785156 325.457031 593.496094 328.476562 585.660156 330.179688 L 579.3125 331.550781 L 579.3125 351.757812 C 579.3125 352.28125 578.304688 353.253906 576.605469 353.253906 L 565.851562 353.253906 C 564.15625 353.253906 563.144531 352.28125 563.144531 351.757812 L 563.144531 331.550781 L 556.796875 330.179688 C 548.90625 328.492188 541.5625 325.472656 534.765625 321.125 L 529.265625 317.609375 L 514.996094 331.914062 C 514.632812 332.28125 513.257812 332.320312 512.007812 331.066406 L 504.445312 323.632812 C 503.273438 322.460938 503.234375 321.003906 503.597656 320.640625 L 517.90625 306.335938 L 514.554688 300.921875 C 510.226562 294.175781 507.207031 286.886719 505.496094 279.058594 L 503.960938 272.632812 L 483.75 272.632812 C 483.222656 272.632812 482.253906 271.621094 482.253906 269.925781 L 482.253906 259.175781 C 482.253906 257.519531 483.222656 256.46875 483.75 256.46875 L 503.960938 256.46875 L 505.335938 250.082031 C 507.085938 242.226562 510.160156 234.925781 514.554688 228.179688 L 518.070312 222.683594 L 503.757812 208.378906 C 503.394531 208.015625 503.4375 206.601562 504.609375 205.390625 L 512.207031 197.792969 C 513.378906 196.621094 514.796875 196.5 515.199219 196.941406 L 529.511719 211.25 L 534.765625 207.976562 C 541.511719 203.644531 548.800781 200.628906 556.636719 198.921875 L 562.980469 197.550781 L 562.980469 177.34375 C 562.980469 176.820312 563.992188 175.847656 565.691406 175.847656 L 576.445312 175.847656 C 578.140625 175.847656 579.152344 176.820312 579.152344 177.34375 L 579.152344 197.550781 L 585.539062 198.921875 C 593.414062 200.617188 600.746094 203.632812 607.53125 207.976562 L 612.988281 211.492188 L 627.296875 197.1875 C 627.664062 196.820312 629.078125 196.863281 630.25 198.035156 L 637.847656 205.671875 C 639.023438 206.84375 639.0625 208.257812 638.699219 208.664062 L 624.386719 222.96875 L 627.742188 228.179688 C 632.070312 234.925781 635.089844 242.214844 636.796875 250.042969 L 638.171875 256.386719 L 658.386719 256.386719 C 658.910156 256.386719 659.882812 257.398438 659.882812 259.09375 Z M 660.082031 269.925781"/></g><path d="M 571.148438 221.675781 C 569.742188 221.675781 568.34375 221.742188 566.945312 221.882812 C 565.546875 222.019531 564.15625 222.226562 562.78125 222.5 C 561.402344 222.773438 560.042969 223.113281 558.699219 223.519531 C 557.351562 223.929688 556.03125 224.402344 554.734375 224.9375 C 553.4375 225.476562 552.167969 226.074219 550.929688 226.738281 C 549.691406 227.398438 548.488281 228.121094 547.320312 228.902344 C 546.152344 229.679688 545.023438 230.515625 543.9375 231.40625 C 542.851562 232.296875 541.8125 233.238281 540.820312 234.234375 C 539.824219 235.226562 538.882812 236.265625 537.992188 237.351562 C 537.101562 238.4375 536.265625 239.5625 535.484375 240.730469 C 534.703125 241.898438 533.984375 243.101562 533.320312 244.339844 C 532.660156 245.578125 532.058594 246.84375 531.523438 248.144531 C 530.984375 249.441406 530.511719 250.761719 530.105469 252.105469 C 529.695312 253.449219 529.355469 254.808594 529.082031 256.1875 C 528.808594 257.5625 528.601562 258.949219 528.464844 260.347656 C 528.324219 261.746094 528.257812 263.148438 528.257812 264.550781 C 528.257812 265.953125 528.324219 267.355469 528.464844 268.753906 C 528.601562 270.152344 528.808594 271.539062 529.082031 272.914062 C 529.355469 274.292969 529.695312 275.652344 530.105469 276.996094 C 530.511719 278.339844 530.984375 279.660156 531.523438 280.957031 C 532.058594 282.257812 532.660156 283.523438 533.320312 284.761719 C 533.984375 286 534.703125 287.203125 535.484375 288.371094 C 536.265625 289.539062 537.101562 290.664062 537.992188 291.75 C 538.882812 292.835938 539.824219 293.875 540.820312 294.867188 C 541.8125 295.863281 542.851562 296.804688 543.9375 297.695312 C 545.023438 298.585938 546.152344 299.421875 547.320312 300.199219 C 548.488281 300.980469 549.691406 301.703125 550.929688 302.363281 C 552.167969 303.027344 553.4375 303.625 554.734375 304.164062 C 556.03125 304.699219 557.351562 305.171875 558.699219 305.582031 C 560.042969 305.988281 561.402344 306.328125 562.78125 306.601562 C 564.15625 306.875 565.546875 307.082031 566.945312 307.21875 C 568.34375 307.359375 569.742188 307.425781 571.148438 307.425781 C 572.550781 307.425781 573.953125 307.359375 575.351562 307.21875 C 576.75 307.082031 578.136719 306.875 579.515625 306.601562 C 580.894531 306.328125 582.253906 305.988281 583.597656 305.582031 C 584.941406 305.171875 586.265625 304.699219 587.5625 304.164062 C 588.859375 303.625 590.128906 303.027344 591.367188 302.363281 C 592.605469 301.703125 593.808594 300.980469 594.976562 300.199219 C 596.144531 299.421875 597.273438 298.585938 598.359375 297.695312 C 599.445312 296.804688 600.484375 295.863281 601.476562 294.867188 C 602.46875 293.875 603.410156 292.835938 604.304688 291.75 C 605.195312 290.664062 606.03125 289.539062 606.808594 288.371094 C 607.589844 287.203125 608.3125 286 608.972656 284.761719 C 609.636719 283.523438 610.238281 282.257812 610.773438 280.957031 C 611.3125 279.660156 611.785156 278.339844 612.191406 276.996094 C 612.601562 275.652344 612.941406 274.292969 613.214844 272.914062 C 613.488281 271.539062 613.695312 270.152344 613.832031 268.753906 C 613.96875 267.355469 614.039062 265.953125 614.039062 264.550781 C 614.039062 263.148438 613.96875 261.746094 613.832031 260.347656 C 613.695312 258.949219 613.488281 257.5625 613.214844 256.1875 C 612.941406 254.808594 612.601562 253.449219 612.191406 252.105469 C 611.785156 250.761719 611.3125 249.441406 610.773438 248.144531 C 610.238281 246.84375 609.636719 245.578125 608.972656 244.339844 C 608.3125 243.101562 607.589844 241.898438 606.808594 240.730469 C 606.03125 239.5625 605.195312 238.4375 604.304688 237.351562 C 603.410156 236.265625 602.46875 235.226562 601.476562 234.234375 C 600.484375 233.238281 599.445312 232.296875 598.359375 231.40625 C 597.273438 230.515625 596.144531 229.679688 594.976562 228.902344 C 593.808594 228.121094 592.605469 227.398438 591.367188 226.738281 C 590.128906 226.074219 588.859375 225.476562 587.5625 224.9375 C 586.265625 224.402344 584.941406 223.929688 583.597656 223.519531 C 582.253906 223.113281 580.894531 222.773438 579.515625 222.5 C 578.136719 222.226562 576.75 222.019531 575.351562 221.882812 C 573.953125 221.742188 572.550781 221.675781 571.148438 221.675781 Z M 571.148438 291.222656 C 570.273438 291.222656 569.398438 291.179688 568.527344 291.09375 C 567.65625 291.007812 566.792969 290.878906 565.933594 290.707031 C 565.074219 290.539062 564.226562 290.324219 563.390625 290.070312 C 562.550781 289.816406 561.726562 289.523438 560.917969 289.1875 C 560.109375 288.851562 559.320312 288.480469 558.546875 288.066406 C 557.777344 287.652344 557.027344 287.203125 556.296875 286.71875 C 555.570312 286.230469 554.867188 285.710938 554.191406 285.15625 C 553.515625 284.601562 552.867188 284.011719 552.25 283.394531 C 551.628906 282.773438 551.042969 282.125 550.488281 281.449219 C 549.933594 280.773438 549.410156 280.070312 548.925781 279.34375 C 548.441406 278.617188 547.988281 277.867188 547.578125 277.09375 C 547.164062 276.320312 546.792969 275.53125 546.457031 274.722656 C 546.121094 273.914062 545.828125 273.089844 545.574219 272.253906 C 545.320312 271.417969 545.109375 270.566406 544.9375 269.710938 C 544.769531 268.851562 544.640625 267.988281 544.554688 267.117188 C 544.46875 266.246094 544.425781 265.371094 544.425781 264.496094 C 544.425781 263.621094 544.472656 262.75 544.558594 261.878906 C 544.644531 261.007812 544.773438 260.140625 544.945312 259.285156 C 545.113281 258.425781 545.328125 257.578125 545.582031 256.742188 C 545.835938 255.902344 546.132812 255.082031 546.46875 254.273438 C 546.804688 253.464844 547.175781 252.675781 547.589844 251.902344 C 548.003906 251.132812 548.453125 250.382812 548.941406 249.65625 C 549.425781 248.925781 549.949219 248.226562 550.503906 247.550781 C 551.0625 246.875 551.648438 246.226562 552.269531 245.609375 C 552.886719 244.988281 553.535156 244.402344 554.210938 243.847656 C 554.890625 243.292969 555.59375 242.773438 556.320312 242.289062 C 557.050781 241.800781 557.800781 241.355469 558.570312 240.941406 C 559.34375 240.53125 560.136719 240.15625 560.945312 239.824219 C 561.753906 239.488281 562.578125 239.195312 563.414062 238.941406 C 564.253906 238.6875 565.101562 238.476562 565.960938 238.308594 C 566.820312 238.136719 567.683594 238.011719 568.554688 237.925781 C 569.425781 237.839844 570.300781 237.796875 571.175781 237.796875 C 572.050781 237.800781 572.921875 237.84375 573.792969 237.929688 C 574.664062 238.015625 575.53125 238.144531 576.390625 238.316406 C 577.246094 238.488281 578.09375 238.703125 578.933594 238.957031 C 579.769531 239.210938 580.59375 239.507812 581.402344 239.84375 C 582.210938 240.179688 583 240.554688 583.773438 240.96875 C 584.542969 241.382812 585.292969 241.832031 586.019531 242.316406 C 586.746094 242.804688 587.449219 243.328125 588.125 243.882812 C 588.800781 244.4375 589.449219 245.027344 590.066406 245.644531 C 590.683594 246.265625 591.269531 246.914062 591.824219 247.589844 C 592.378906 248.269531 592.898438 248.972656 593.386719 249.699219 C 593.871094 250.429688 594.320312 251.179688 594.730469 251.949219 C 595.140625 252.722656 595.515625 253.511719 595.847656 254.324219 C 596.183594 255.132812 596.476562 255.953125 596.730469 256.792969 C 596.980469 257.628906 597.195312 258.480469 597.363281 259.335938 C 597.53125 260.195312 597.660156 261.0625 597.746094 261.929688 C 597.828125 262.800781 597.871094 263.675781 597.867188 264.550781 C 597.867188 265.425781 597.824219 266.296875 597.742188 267.167969 C 597.65625 268.039062 597.527344 268.902344 597.355469 269.761719 C 597.183594 270.621094 596.972656 271.46875 596.71875 272.304688 C 596.464844 273.140625 596.167969 273.964844 595.835938 274.773438 C 595.5 275.582031 595.125 276.371094 594.714844 277.144531 C 594.300781 277.914062 593.851562 278.664062 593.367188 279.390625 C 592.878906 280.117188 592.359375 280.820312 591.804688 281.496094 C 591.25 282.171875 590.660156 282.820312 590.042969 283.4375 C 589.421875 284.058594 588.777344 284.644531 588.097656 285.199219 C 587.421875 285.753906 586.722656 286.273438 585.992188 286.761719 C 585.265625 287.246094 584.515625 287.695312 583.746094 288.109375 C 582.972656 288.519531 582.183594 288.894531 581.375 289.230469 C 580.566406 289.5625 579.742188 289.859375 578.90625 290.113281 C 578.066406 290.367188 577.21875 290.578125 576.359375 290.75 C 575.503906 290.917969 574.636719 291.046875 573.765625 291.132812 C 572.894531 291.21875 572.023438 291.261719 571.148438 291.261719 Z M 571.148438 291.222656"/><g clip-path="url(#b)"><path d="M 176.476562 288.796875 L 183.957031 288.796875 C 185.546875 294.042969 187.636719 299.078125 190.222656 303.910156 L 184.925781 309.203125 C 184.519531 309.644531 184.136719 310.101562 183.773438 310.574219 C 183.410156 311.050781 183.074219 311.542969 182.757812 312.050781 C 182.445312 312.558594 182.15625 313.082031 181.894531 313.621094 C 181.628906 314.15625 181.394531 314.703125 181.183594 315.265625 C 180.976562 315.824219 180.792969 316.390625 180.640625 316.96875 C 180.488281 317.546875 180.359375 318.132812 180.265625 318.722656 C 180.167969 319.3125 180.101562 319.902344 180.0625 320.5 C 180.023438 321.097656 180.011719 321.695312 180.03125 322.289062 C 180.050781 322.886719 180.101562 323.484375 180.179688 324.074219 C 180.257812 324.667969 180.363281 325.253906 180.5 325.835938 C 180.632812 326.421875 180.796875 326.996094 180.988281 327.558594 C 181.179688 328.125 181.398438 328.683594 181.644531 329.226562 C 181.890625 329.773438 182.160156 330.304688 182.457031 330.820312 C 182.757812 331.339844 183.078125 331.84375 183.425781 332.328125 C 183.773438 332.816406 184.140625 333.285156 184.535156 333.734375 C 184.925781 334.1875 185.339844 334.617188 185.773438 335.027344 L 193.414062 342.664062 C 193.828125 343.097656 194.257812 343.511719 194.710938 343.902344 C 195.160156 344.292969 195.628906 344.664062 196.117188 345.007812 C 196.605469 345.351562 197.109375 345.675781 197.625 345.972656 C 198.144531 346.269531 198.675781 346.539062 199.222656 346.785156 C 199.765625 347.027344 200.324219 347.246094 200.886719 347.4375 C 201.453125 347.628906 202.027344 347.789062 202.609375 347.925781 C 203.191406 348.058594 203.78125 348.164062 204.371094 348.242188 C 204.964844 348.320312 205.558594 348.371094 206.15625 348.390625 C 206.753906 348.410156 207.351562 348.398438 207.949219 348.359375 C 208.542969 348.324219 209.136719 348.253906 209.726562 348.160156 C 210.316406 348.0625 210.898438 347.9375 211.476562 347.785156 C 212.054688 347.632812 212.625 347.449219 213.183594 347.242188 C 213.742188 347.035156 214.292969 346.796875 214.828125 346.535156 C 215.367188 346.273438 215.886719 345.988281 216.398438 345.675781 C 216.90625 345.359375 217.398438 345.023438 217.875 344.664062 C 218.351562 344.300781 218.808594 343.917969 219.246094 343.515625 L 224.542969 338.21875 C 229.375 340.808594 234.414062 342.894531 239.660156 344.484375 L 239.660156 351.960938 C 239.683594 352.558594 239.734375 353.152344 239.8125 353.746094 C 239.890625 354.339844 240 354.925781 240.136719 355.507812 C 240.273438 356.089844 240.4375 356.664062 240.632812 357.230469 C 240.824219 357.796875 241.046875 358.355469 241.292969 358.898438 C 241.539062 359.441406 241.8125 359.972656 242.113281 360.492188 C 242.414062 361.011719 242.738281 361.511719 243.085938 361.996094 C 243.4375 362.484375 243.808594 362.953125 244.203125 363.402344 C 244.597656 363.851562 245.015625 364.28125 245.449219 364.6875 C 245.886719 365.097656 246.34375 365.484375 246.820312 365.847656 C 247.292969 366.210938 247.785156 366.550781 248.292969 366.867188 C 248.800781 367.183594 249.324219 367.472656 249.859375 367.738281 C 250.398438 368.003906 250.945312 368.242188 251.507812 368.453125 C 252.066406 368.664062 252.636719 368.847656 253.214844 369 C 253.792969 369.15625 254.375 369.285156 254.964844 369.382812 C 255.554688 369.480469 256.148438 369.546875 256.746094 369.589844 C 257.34375 369.628906 257.941406 369.636719 258.539062 369.621094 L 269.292969 369.621094 C 269.890625 369.636719 270.488281 369.628906 271.085938 369.589844 C 271.683594 369.546875 272.277344 369.480469 272.867188 369.382812 C 273.457031 369.285156 274.042969 369.15625 274.621094 369 C 275.199219 368.847656 275.769531 368.664062 276.328125 368.453125 C 276.886719 368.242188 277.4375 368.003906 277.972656 367.738281 C 278.507812 367.472656 279.03125 367.183594 279.539062 366.867188 C 280.046875 366.550781 280.539062 366.210938 281.015625 365.847656 C 281.488281 365.484375 281.945312 365.097656 282.382812 364.6875 C 282.820312 364.28125 283.234375 363.851562 283.628906 363.402344 C 284.027344 362.953125 284.398438 362.484375 284.746094 361.996094 C 285.097656 361.511719 285.421875 361.011719 285.71875 360.492188 C 286.019531 359.972656 286.292969 359.441406 286.542969 358.898438 C 286.789062 358.355469 287.007812 357.796875 287.203125 357.230469 C 287.394531 356.664062 287.5625 356.089844 287.699219 355.507812 C 287.835938 354.925781 287.941406 354.339844 288.023438 353.746094 C 288.101562 353.152344 288.152344 352.558594 288.171875 351.960938 L 288.171875 344.484375 C 293.417969 342.894531 298.457031 340.808594 303.292969 338.21875 L 308.628906 343.554688 C 309.066406 343.960938 309.523438 344.339844 310 344.703125 C 310.476562 345.0625 310.972656 345.398438 311.480469 345.710938 C 311.988281 346.023438 312.511719 346.308594 313.050781 346.570312 C 313.589844 346.832031 314.136719 347.066406 314.699219 347.273438 C 315.257812 347.480469 315.828125 347.660156 316.40625 347.8125 C 316.980469 347.964844 317.566406 348.089844 318.15625 348.183594 C 318.746094 348.28125 319.339844 348.347656 319.933594 348.382812 C 320.53125 348.421875 321.128906 348.429688 321.726562 348.410156 C 322.324219 348.390625 322.917969 348.339844 323.511719 348.261719 C 324.101562 348.183594 324.6875 348.074219 325.269531 347.941406 C 325.851562 347.804688 326.425781 347.640625 326.992188 347.449219 C 327.558594 347.257812 328.113281 347.039062 328.660156 346.792969 C 329.203125 346.546875 329.734375 346.277344 330.253906 345.976562 C 330.769531 345.679688 331.273438 345.359375 331.761719 345.011719 C 332.246094 344.664062 332.714844 344.296875 333.167969 343.90625 C 333.617188 343.511719 334.046875 343.097656 334.457031 342.664062 L 342.058594 335.027344 C 342.492188 334.617188 342.90625 334.1875 343.300781 333.734375 C 343.691406 333.285156 344.0625 332.816406 344.410156 332.328125 C 344.753906 331.84375 345.078125 331.339844 345.375 330.820312 C 345.671875 330.304688 345.945312 329.773438 346.191406 329.226562 C 346.4375 328.683594 346.65625 328.125 346.847656 327.558594 C 347.039062 326.996094 347.199219 326.421875 347.335938 325.835938 C 347.472656 325.253906 347.578125 324.667969 347.65625 324.074219 C 347.734375 323.484375 347.78125 322.886719 347.800781 322.289062 C 347.820312 321.695312 347.8125 321.097656 347.773438 320.5 C 347.734375 319.902344 347.667969 319.3125 347.570312 318.722656 C 347.472656 318.132812 347.347656 317.546875 347.195312 316.96875 C 347.039062 316.390625 346.859375 315.824219 346.648438 315.265625 C 346.441406 314.703125 346.203125 314.15625 345.941406 313.621094 C 345.679688 313.082031 345.390625 312.558594 345.074219 312.050781 C 344.761719 311.542969 344.421875 311.050781 344.0625 310.574219 C 343.699219 310.101562 343.316406 309.644531 342.90625 309.203125 L 337.613281 303.910156 C 340.199219 299.078125 342.289062 294.042969 343.878906 288.796875 L 351.355469 288.796875 C 351.953125 288.777344 352.550781 288.726562 353.144531 288.648438 C 353.738281 288.566406 354.324219 288.460938 354.90625 288.324219 C 355.488281 288.1875 356.066406 288.019531 356.632812 287.828125 C 357.199219 287.636719 357.753906 287.414062 358.296875 287.167969 C 358.84375 286.917969 359.375 286.644531 359.890625 286.347656 C 360.410156 286.046875 360.914062 285.722656 361.398438 285.375 C 361.882812 285.023438 362.351562 284.652344 362.800781 284.257812 C 363.25 283.863281 363.679688 283.445312 364.089844 283.011719 C 364.5 282.574219 364.886719 282.117188 365.25 281.644531 C 365.613281 281.167969 365.953125 280.675781 366.269531 280.167969 C 366.585938 279.660156 366.875 279.136719 367.140625 278.601562 C 367.40625 278.066406 367.644531 277.515625 367.855469 276.957031 C 368.066406 276.398438 368.25 275.828125 368.40625 275.25 C 368.558594 274.671875 368.6875 274.089844 368.785156 273.5 C 368.882812 272.910156 368.953125 272.316406 368.992188 271.71875 C 369.03125 271.121094 369.042969 270.523438 369.023438 269.925781 L 369.023438 259.175781 C 369.042969 258.578125 369.03125 257.980469 368.992188 257.382812 C 368.953125 256.785156 368.882812 256.191406 368.785156 255.601562 C 368.6875 255.011719 368.558594 254.429688 368.40625 253.851562 C 368.25 253.273438 368.066406 252.703125 367.855469 252.144531 C 367.644531 251.585938 367.40625 251.035156 367.140625 250.5 C 366.875 249.964844 366.585938 249.441406 366.269531 248.933594 C 365.953125 248.425781 365.613281 247.933594 365.25 247.457031 C 364.886719 246.984375 364.5 246.527344 364.089844 246.089844 C 363.679688 245.65625 363.25 245.238281 362.800781 244.84375 C 362.351562 244.449219 361.882812 244.078125 361.398438 243.726562 C 360.914062 243.378906 360.410156 243.054688 359.890625 242.753906 C 359.375 242.457031 358.84375 242.183594 358.296875 241.933594 C 357.753906 241.6875 357.199219 241.464844 356.632812 241.273438 C 356.066406 241.082031 355.488281 240.914062 354.90625 240.777344 C 354.324219 240.640625 353.738281 240.535156 353.144531 240.453125 C 352.550781 240.375 351.953125 240.324219 351.355469 240.304688 L 343.878906 240.304688 C 342.289062 235.058594 340.199219 230.023438 337.613281 225.191406 L 342.90625 219.898438 C 343.316406 219.460938 343.703125 219.003906 344.066406 218.527344 C 344.429688 218.054688 344.765625 217.5625 345.082031 217.054688 C 345.398438 216.542969 345.6875 216.023438 345.949219 215.484375 C 346.214844 214.949219 346.453125 214.398438 346.660156 213.839844 C 346.871094 213.28125 347.054688 212.710938 347.207031 212.132812 C 347.363281 211.554688 347.488281 210.972656 347.585938 210.382812 C 347.683594 209.792969 347.75 209.199219 347.789062 208.601562 C 347.828125 208.003906 347.835938 207.40625 347.816406 206.808594 C 347.796875 206.210938 347.75 205.617188 347.671875 205.023438 C 347.59375 204.429688 347.488281 203.84375 347.351562 203.261719 C 347.214844 202.679688 347.050781 202.105469 346.859375 201.539062 C 346.667969 200.972656 346.449219 200.414062 346.203125 199.871094 C 345.957031 199.324219 345.683594 198.792969 345.382812 198.277344 C 345.085938 197.757812 344.761719 197.253906 344.414062 196.769531 C 344.066406 196.28125 343.695312 195.8125 343.304688 195.363281 C 342.910156 194.914062 342.496094 194.484375 342.058594 194.074219 L 334.417969 186.4375 C 334.007812 186 333.578125 185.589844 333.125 185.195312 C 332.675781 184.804688 332.207031 184.433594 331.71875 184.085938 C 331.234375 183.742188 330.730469 183.417969 330.210938 183.121094 C 329.691406 182.824219 329.160156 182.550781 328.617188 182.304688 C 328.070312 182.0625 327.515625 181.84375 326.949219 181.652344 C 326.382812 181.460938 325.808594 181.296875 325.226562 181.160156 C 324.644531 181.027344 324.054688 180.917969 323.460938 180.84375 C 322.871094 180.765625 322.273438 180.714844 321.675781 180.695312 C 321.078125 180.675781 320.484375 180.6875 319.886719 180.722656 C 319.289062 180.761719 318.695312 180.832031 318.105469 180.925781 C 317.515625 181.023438 316.933594 181.148438 316.355469 181.304688 C 315.777344 181.457031 315.207031 181.636719 314.648438 181.847656 C 314.089844 182.058594 313.539062 182.292969 313.003906 182.554688 C 312.464844 182.820312 311.941406 183.105469 311.433594 183.421875 C 310.925781 183.734375 310.433594 184.074219 309.957031 184.433594 C 309.480469 184.796875 309.023438 185.179688 308.585938 185.585938 L 303.292969 190.882812 C 298.457031 188.296875 293.417969 186.207031 288.171875 184.617188 L 288.171875 177.140625 C 288.152344 176.542969 288.101562 175.949219 288.023438 175.355469 C 287.941406 174.761719 287.835938 174.175781 287.699219 173.59375 C 287.5625 173.011719 287.394531 172.4375 287.203125 171.871094 C 287.007812 171.304688 286.789062 170.746094 286.542969 170.203125 C 286.292969 169.660156 286.019531 169.128906 285.71875 168.609375 C 285.421875 168.089844 285.097656 167.589844 284.746094 167.105469 C 284.398438 166.617188 284.027344 166.148438 283.628906 165.699219 C 283.234375 165.25 282.820312 164.820312 282.382812 164.414062 C 281.945312 164.003906 281.488281 163.617188 281.015625 163.253906 C 280.539062 162.890625 280.046875 162.550781 279.539062 162.234375 C 279.03125 161.917969 278.507812 161.628906 277.972656 161.363281 C 277.4375 161.097656 276.886719 160.859375 276.328125 160.648438 C 275.769531 160.4375 275.199219 160.253906 274.621094 160.101562 C 274.042969 159.945312 273.457031 159.816406 272.867188 159.71875 C 272.277344 159.621094 271.683594 159.554688 271.085938 159.515625 C 270.488281 159.472656 269.890625 159.464844 269.292969 159.480469 L 258.539062 159.480469 C 257.941406 159.464844 257.34375 159.472656 256.746094 159.515625 C 256.148438 159.554688 255.554688 159.621094 254.964844 159.71875 C 254.375 159.816406 253.792969 159.945312 253.214844 160.101562 C 252.636719 160.253906 252.066406 160.4375 251.507812 160.648438 C 250.945312 160.859375 250.398438 161.097656 249.859375 161.363281 C 249.324219 161.628906 248.800781 161.917969 248.292969 162.234375 C 247.785156 162.550781 247.292969 162.890625 246.820312 163.253906 C 246.34375 163.617188 245.886719 164.003906 245.449219 164.414062 C 245.015625 164.820312 244.597656 165.25 244.203125 165.699219 C 243.808594 166.148438 243.4375 166.617188 243.085938 167.105469 C 242.738281 167.589844 242.414062 168.089844 242.113281 168.609375 C 241.8125 169.128906 241.539062 169.660156 241.292969 170.203125 C 241.046875 170.746094 240.824219 171.304688 240.632812 171.871094 C 240.4375 172.4375 240.273438 173.011719 240.136719 173.59375 C 240 174.175781 239.890625 174.761719 239.8125 175.355469 C 239.734375 175.949219 239.683594 176.542969 239.660156 177.140625 L 239.660156 184.617188 C 234.414062 186.203125 229.375 188.289062 224.542969 190.882812 L 219.449219 185.585938 C 219.011719 185.179688 218.554688 184.796875 218.078125 184.433594 C 217.601562 184.074219 217.109375 183.734375 216.601562 183.421875 C 216.09375 183.105469 215.570312 182.820312 215.035156 182.554688 C 214.496094 182.292969 213.949219 182.058594 213.386719 181.847656 C 212.828125 181.636719 212.257812 181.457031 211.679688 181.304688 C 211.105469 181.148438 210.519531 181.023438 209.929688 180.925781 C 209.339844 180.832031 208.746094 180.761719 208.148438 180.722656 C 207.554688 180.6875 206.957031 180.675781 206.359375 180.695312 C 205.761719 180.714844 205.167969 180.765625 204.574219 180.84375 C 203.980469 180.917969 203.394531 181.027344 202.8125 181.160156 C 202.226562 181.296875 201.652344 181.460938 201.085938 181.652344 C 200.519531 181.84375 199.964844 182.0625 199.421875 182.304688 C 198.875 182.550781 198.34375 182.824219 197.824219 183.121094 C 197.304688 183.417969 196.804688 183.742188 196.316406 184.085938 C 195.828125 184.433594 195.359375 184.804688 194.910156 185.195312 C 194.457031 185.589844 194.027344 186 193.617188 186.4375 L 185.773438 194.074219 C 185.332031 194.484375 184.914062 194.917969 184.511719 195.371094 C 184.113281 195.824219 183.738281 196.292969 183.382812 196.785156 C 183.03125 197.273438 182.703125 197.777344 182.398438 198.300781 C 182.097656 198.824219 181.820312 199.359375 181.570312 199.910156 C 181.320312 200.457031 181.097656 201.019531 180.902344 201.589844 C 180.707031 202.160156 180.542969 202.742188 180.40625 203.328125 C 180.265625 203.914062 180.160156 204.507812 180.078125 205.105469 C 180 205.707031 179.953125 206.304688 179.933594 206.910156 C 179.914062 207.511719 179.921875 208.117188 179.960938 208.71875 C 180 209.320312 180.070312 209.917969 180.171875 210.515625 C 180.269531 211.109375 180.398438 211.699219 180.554688 212.28125 C 180.710938 212.863281 180.898438 213.4375 181.109375 214.003906 C 181.324219 214.566406 181.566406 215.121094 181.832031 215.660156 C 182.101562 216.203125 182.398438 216.726562 182.71875 217.238281 C 183.039062 217.75 183.382812 218.246094 183.75 218.722656 C 184.121094 219.203125 184.511719 219.660156 184.925781 220.097656 L 190.222656 225.394531 C 187.644531 230.15625 185.554688 235.128906 183.957031 240.304688 L 176.476562 240.304688 C 175.878906 240.324219 175.285156 240.375 174.691406 240.453125 C 174.097656 240.535156 173.507812 240.640625 172.925781 240.777344 C 172.34375 240.914062 171.769531 241.082031 171.203125 241.273438 C 170.636719 241.464844 170.082031 241.6875 169.535156 241.933594 C 168.992188 242.183594 168.460938 242.457031 167.941406 242.753906 C 167.425781 243.054688 166.921875 243.378906 166.4375 243.726562 C 165.949219 244.078125 165.480469 244.449219 165.03125 244.84375 C 164.582031 245.238281 164.152344 245.65625 163.742188 246.089844 C 163.335938 246.527344 162.949219 246.984375 162.585938 247.457031 C 162.21875 247.933594 161.878906 248.425781 161.5625 248.933594 C 161.246094 249.441406 160.957031 249.964844 160.691406 250.5 C 160.429688 251.035156 160.191406 251.585938 159.980469 252.144531 C 159.769531 252.703125 159.585938 253.273438 159.429688 253.851562 C 159.273438 254.429688 159.148438 255.011719 159.050781 255.601562 C 158.953125 256.191406 158.882812 256.785156 158.84375 257.382812 C 158.804688 257.980469 158.792969 258.578125 158.8125 259.175781 L 158.8125 269.925781 C 158.792969 270.523438 158.804688 271.121094 158.84375 271.71875 C 158.882812 272.316406 158.953125 272.910156 159.050781 273.5 C 159.148438 274.089844 159.273438 274.671875 159.429688 275.25 C 159.585938 275.828125 159.769531 276.398438 159.980469 276.957031 C 160.191406 277.515625 160.429688 278.066406 160.691406 278.601562 C 160.957031 279.136719 161.246094 279.660156 161.5625 280.167969 C 161.878906 280.675781 162.21875 281.167969 162.585938 281.644531 C 162.949219 282.117188 163.335938 282.574219 163.742188 283.011719 C 164.152344 283.445312 164.582031 283.863281 165.03125 284.257812 C 165.480469 284.652344 165.949219 285.023438 166.4375 285.375 C 166.921875 285.722656 167.425781 286.046875 167.941406 286.347656 C 168.460938 286.644531 168.992188 286.917969 169.535156 287.167969 C 170.082031 287.414062 170.636719 287.636719 171.203125 287.828125 C 171.769531 288.019531 172.34375 288.1875 172.925781 288.324219 C 173.507812 288.460938 174.097656 288.566406 174.691406 288.648438 C 175.285156 288.726562 175.878906 288.777344 176.476562 288.796875 Z M 174.980469 259.175781 C 174.980469 257.519531 175.953125 256.46875 176.476562 256.46875 L 196.691406 256.46875 L 198.066406 250.082031 C 199.828125 242.222656 202.914062 234.921875 207.320312 228.179688 L 210.839844 222.683594 L 196.367188 208.460938 C 196.003906 208.097656 196.042969 206.683594 197.214844 205.46875 L 204.816406 197.871094 C 205.988281 196.699219 207.363281 196.578125 207.808594 197.023438 L 222.117188 211.328125 L 227.535156 207.976562 C 234.28125 203.644531 241.570312 200.628906 249.40625 198.921875 L 255.832031 197.386719 L 255.832031 177.183594 C 255.832031 176.65625 256.84375 175.6875 258.539062 175.6875 L 269.292969 175.6875 C 270.992188 175.6875 272.003906 176.65625 272.003906 177.183594 L 272.003906 197.386719 L 278.390625 198.761719 C 286.246094 200.515625 293.550781 203.585938 300.300781 207.976562 L 305.757812 211.492188 L 320.066406 197.1875 C 320.429688 196.820312 321.847656 196.863281 323.019531 198.035156 L 330.617188 205.671875 C 331.789062 206.84375 331.832031 208.257812 331.46875 208.664062 L 317.15625 222.96875 L 320.511719 228.179688 C 324.839844 234.925781 327.859375 242.214844 329.566406 250.042969 L 331.105469 256.46875 L 351.316406 256.46875 C 351.839844 256.46875 352.8125 257.480469 352.8125 259.175781 L 352.8125 269.925781 C 352.8125 271.621094 351.839844 272.632812 351.316406 272.632812 L 331.105469 272.632812 L 329.730469 278.976562 C 327.96875 286.84375 324.898438 294.15625 320.511719 300.921875 L 316.996094 306.375 L 331.304688 320.679688 C 331.667969 321.046875 331.628906 322.5 330.457031 323.671875 L 323.019531 331.230469 C 321.804688 332.402344 320.390625 332.441406 320.027344 332.078125 L 305.714844 317.730469 L 300.300781 321.125 C 293.554688 325.457031 286.265625 328.476562 278.429688 330.179688 L 272.003906 331.714844 L 272.003906 351.917969 C 272.003906 352.445312 270.992188 353.414062 269.292969 353.414062 L 258.539062 353.414062 C 256.84375 353.414062 255.832031 352.445312 255.832031 351.917969 L 255.832031 331.714844 L 249.484375 330.339844 C 241.613281 328.59375 234.292969 325.523438 227.535156 321.125 L 222.035156 317.609375 L 207.765625 331.914062 C 207.402344 332.28125 205.988281 332.320312 204.773438 331.066406 L 197.214844 323.632812 C 196.042969 322.460938 196.003906 321.003906 196.367188 320.640625 L 210.675781 306.335938 L 207.320312 300.921875 C 202.992188 294.175781 199.976562 286.886719 198.265625 279.058594 L 196.730469 272.632812 L 176.519531 272.632812 C 175.992188 272.632812 175.023438 271.621094 175.023438 269.925781 Z M 174.980469 259.175781"/></g><path d="M 263.917969 307.425781 C 265.320312 307.425781 266.722656 307.359375 268.121094 307.21875 C 269.519531 307.082031 270.90625 306.875 272.285156 306.601562 C 273.664062 306.328125 275.023438 305.988281 276.367188 305.582031 C 277.710938 305.171875 279.03125 304.699219 280.332031 304.164062 C 281.628906 303.625 282.898438 303.027344 284.136719 302.363281 C 285.375 301.703125 286.578125 300.980469 287.746094 300.199219 C 288.914062 299.421875 290.039062 298.585938 291.125 297.695312 C 292.210938 296.804688 293.253906 295.863281 294.246094 294.867188 C 295.238281 293.875 296.179688 292.835938 297.070312 291.75 C 297.964844 290.664062 298.800781 289.539062 299.578125 288.371094 C 300.359375 287.203125 301.082031 286 301.742188 284.761719 C 302.40625 283.523438 303.003906 282.257812 303.542969 280.957031 C 304.082031 279.660156 304.554688 278.339844 304.960938 276.996094 C 305.367188 275.652344 305.710938 274.292969 305.984375 272.914062 C 306.257812 271.539062 306.464844 270.152344 306.601562 268.753906 C 306.738281 267.355469 306.808594 265.953125 306.808594 264.550781 C 306.808594 263.148438 306.738281 261.746094 306.601562 260.347656 C 306.464844 258.949219 306.257812 257.5625 305.984375 256.1875 C 305.710938 254.808594 305.367188 253.449219 304.960938 252.105469 C 304.554688 250.761719 304.082031 249.441406 303.542969 248.144531 C 303.003906 246.84375 302.40625 245.578125 301.742188 244.339844 C 301.082031 243.101562 300.359375 241.898438 299.578125 240.730469 C 298.800781 239.5625 297.964844 238.4375 297.070312 237.351562 C 296.179688 236.265625 295.238281 235.226562 294.246094 234.234375 C 293.253906 233.238281 292.210938 232.296875 291.125 231.40625 C 290.039062 230.515625 288.914062 229.679688 287.746094 228.902344 C 286.578125 228.121094 285.375 227.398438 284.136719 226.738281 C 282.898438 226.074219 281.628906 225.476562 280.332031 224.9375 C 279.03125 224.402344 277.710938 223.929688 276.367188 223.519531 C 275.023438 223.113281 273.664062 222.773438 272.285156 222.5 C 270.90625 222.226562 269.519531 222.019531 268.121094 221.882812 C 266.722656 221.742188 265.320312 221.675781 263.917969 221.675781 C 262.511719 221.675781 261.109375 221.742188 259.714844 221.882812 C 258.316406 222.019531 256.925781 222.226562 255.550781 222.5 C 254.171875 222.773438 252.8125 223.113281 251.464844 223.519531 C 250.121094 223.929688 248.800781 224.402344 247.503906 224.9375 C 246.207031 225.476562 244.9375 226.074219 243.699219 226.738281 C 242.460938 227.398438 241.257812 228.121094 240.089844 228.902344 C 238.921875 229.679688 237.792969 230.515625 236.707031 231.40625 C 235.621094 232.296875 234.582031 233.238281 233.589844 234.234375 C 232.59375 235.226562 231.652344 236.265625 230.761719 237.351562 C 229.871094 238.4375 229.035156 239.5625 228.253906 240.730469 C 227.472656 241.898438 226.753906 243.101562 226.089844 244.339844 C 225.429688 245.578125 224.828125 246.84375 224.289062 248.144531 C 223.753906 249.441406 223.28125 250.761719 222.871094 252.105469 C 222.464844 253.449219 222.125 254.808594 221.851562 256.1875 C 221.574219 257.5625 221.371094 258.949219 221.234375 260.347656 C 221.09375 261.746094 221.027344 263.148438 221.027344 264.550781 C 221.027344 265.953125 221.09375 267.355469 221.234375 268.753906 C 221.371094 270.152344 221.574219 271.539062 221.851562 272.914062 C 222.125 274.292969 222.464844 275.652344 222.871094 276.996094 C 223.28125 278.339844 223.753906 279.660156 224.289062 280.957031 C 224.828125 282.257812 225.429688 283.523438 226.089844 284.761719 C 226.753906 286 227.472656 287.203125 228.253906 288.371094 C 229.035156 289.539062 229.871094 290.664062 230.761719 291.75 C 231.652344 292.835938 232.59375 293.875 233.589844 294.867188 C 234.582031 295.863281 235.621094 296.804688 236.707031 297.695312 C 237.792969 298.585938 238.921875 299.421875 240.089844 300.199219 C 241.257812 300.980469 242.460938 301.703125 243.699219 302.363281 C 244.9375 303.027344 246.207031 303.625 247.503906 304.164062 C 248.800781 304.699219 250.121094 305.171875 251.464844 305.582031 C 252.8125 305.988281 254.171875 306.328125 255.550781 306.601562 C 256.925781 306.875 258.316406 307.082031 259.714844 307.21875 C 261.109375 307.359375 262.511719 307.425781 263.917969 307.425781 Z M 263.917969 237.878906 C 264.792969 237.878906 265.664062 237.921875 266.535156 238.007812 C 267.410156 238.09375 268.273438 238.222656 269.132812 238.394531 C 269.992188 238.5625 270.839844 238.777344 271.675781 239.03125 C 272.515625 239.285156 273.335938 239.578125 274.144531 239.914062 C 274.953125 240.25 275.746094 240.621094 276.515625 241.035156 C 277.289062 241.449219 278.039062 241.898438 278.765625 242.382812 C 279.496094 242.871094 280.195312 243.390625 280.875 243.945312 C 281.550781 244.5 282.199219 245.089844 282.816406 245.707031 C 283.433594 246.328125 284.023438 246.976562 284.578125 247.652344 C 285.132812 248.328125 285.652344 249.03125 286.140625 249.757812 C 286.625 250.484375 287.074219 251.234375 287.488281 252.007812 C 287.898438 252.78125 288.273438 253.570312 288.609375 254.378906 C 288.941406 255.1875 289.238281 256.011719 289.492188 256.847656 C 289.746094 257.683594 289.957031 258.535156 290.125 259.390625 C 290.296875 260.25 290.425781 261.113281 290.511719 261.984375 C 290.597656 262.855469 290.636719 263.730469 290.636719 264.605469 C 290.636719 265.480469 290.59375 266.351562 290.507812 267.222656 C 290.421875 268.09375 290.292969 268.960938 290.121094 269.816406 C 289.949219 270.675781 289.738281 271.523438 289.484375 272.359375 C 289.226562 273.199219 288.933594 274.019531 288.597656 274.828125 C 288.261719 275.636719 287.886719 276.425781 287.472656 277.199219 C 287.0625 277.96875 286.609375 278.71875 286.125 279.445312 C 285.636719 280.175781 285.117188 280.875 284.558594 281.550781 C 284.003906 282.226562 283.417969 282.875 282.796875 283.492188 C 282.179688 284.113281 281.53125 284.699219 280.851562 285.253906 C 280.175781 285.808594 279.472656 286.328125 278.746094 286.8125 C 278.015625 287.300781 277.265625 287.746094 276.492188 288.160156 C 275.722656 288.570312 274.929688 288.945312 274.121094 289.277344 C 273.3125 289.613281 272.488281 289.90625 271.648438 290.160156 C 270.8125 290.414062 269.964844 290.625 269.105469 290.792969 C 268.246094 290.964844 267.382812 291.09375 266.511719 291.175781 C 265.640625 291.261719 264.765625 291.304688 263.890625 291.304688 C 263.015625 291.300781 262.140625 291.257812 261.269531 291.171875 C 260.398438 291.085938 259.535156 290.957031 258.675781 290.785156 C 257.816406 290.613281 256.96875 290.398438 256.132812 290.144531 C 255.292969 289.890625 254.472656 289.59375 253.664062 289.257812 C 252.855469 288.921875 252.066406 288.546875 251.292969 288.132812 C 250.523438 287.71875 249.773438 287.269531 249.046875 286.785156 C 248.316406 286.296875 247.617188 285.773438 246.941406 285.21875 C 246.265625 284.664062 245.617188 284.074219 245 283.457031 C 244.378906 282.835938 243.792969 282.1875 243.238281 281.511719 C 242.683594 280.832031 242.164062 280.128906 241.679688 279.402344 C 241.195312 278.671875 240.746094 277.921875 240.335938 277.152344 C 239.921875 276.378906 239.550781 275.589844 239.214844 274.777344 C 238.882812 273.96875 238.589844 273.148438 238.335938 272.308594 C 238.082031 271.472656 237.871094 270.621094 237.703125 269.765625 C 237.53125 268.90625 237.40625 268.042969 237.320312 267.171875 C 237.234375 266.300781 237.195312 265.425781 237.195312 264.550781 C 237.195312 263.675781 237.238281 262.804688 237.324219 261.933594 C 237.410156 261.0625 237.539062 260.199219 237.710938 259.339844 C 237.878906 258.480469 238.09375 257.632812 238.347656 256.796875 C 238.601562 255.960938 238.894531 255.136719 239.230469 254.328125 C 239.566406 253.519531 239.9375 252.730469 240.351562 251.960938 C 240.765625 251.1875 241.214844 250.4375 241.699219 249.710938 C 242.1875 248.984375 242.707031 248.28125 243.261719 247.605469 C 243.816406 246.929688 244.402344 246.28125 245.023438 245.664062 C 245.640625 245.042969 246.289062 244.457031 246.964844 243.902344 C 247.640625 243.347656 248.34375 242.828125 249.070312 242.339844 C 249.800781 241.855469 250.550781 241.40625 251.320312 240.992188 C 252.09375 240.582031 252.882812 240.207031 253.691406 239.871094 C 254.5 239.539062 255.324219 239.242188 256.160156 238.988281 C 256.996094 238.734375 257.847656 238.523438 258.703125 238.351562 C 259.5625 238.183594 260.425781 238.054688 261.296875 237.96875 C 262.167969 237.882812 263.042969 237.839844 263.917969 237.839844 Z M 263.917969 237.878906"/><path d="M 567.105469 412.820312 C 567.097656 412.074219 566.992188 411.347656 566.785156 410.632812 C 566.578125 409.921875 566.28125 409.25 565.886719 408.617188 C 565.496094 407.988281 565.023438 407.421875 564.476562 406.917969 C 563.929688 406.417969 563.324219 406 562.660156 405.664062 L 421.171875 334.136719 C 420.019531 333.554688 418.800781 333.261719 417.511719 333.261719 C 416.222656 333.261719 415.003906 333.554688 413.855469 334.136719 L 272.367188 405.664062 C 271.703125 406.003906 271.101562 406.425781 270.554688 406.933594 C 270.007812 407.4375 269.542969 408.007812 269.152344 408.644531 C 268.765625 409.277344 268.472656 409.953125 268.269531 410.667969 C 268.066406 411.386719 267.96875 412.113281 267.96875 412.859375 C 267.96875 413.601562 268.066406 414.332031 268.269531 415.046875 C 268.472656 415.765625 268.765625 416.441406 269.152344 417.074219 C 269.542969 417.707031 270.007812 418.277344 270.554688 418.785156 C 271.101562 419.289062 271.703125 419.714844 272.367188 420.050781 L 289.222656 428.863281 L 272.003906 438.117188 C 271.355469 438.460938 270.765625 438.886719 270.234375 439.390625 C 269.703125 439.894531 269.25 440.460938 268.871094 441.089844 C 268.496094 441.71875 268.207031 442.382812 268.011719 443.089844 C 267.816406 443.796875 267.71875 444.515625 267.71875 445.25 C 267.71875 445.980469 267.816406 446.699219 268.011719 447.40625 C 268.207031 448.113281 268.496094 448.78125 268.871094 449.40625 C 269.25 450.035156 269.703125 450.601562 270.234375 451.105469 C 270.765625 451.613281 271.355469 452.035156 272.003906 452.378906 L 288.859375 461.191406 L 272.003906 470.445312 C 271.355469 470.789062 270.765625 471.214844 270.234375 471.71875 C 269.703125 472.222656 269.25 472.789062 268.871094 473.417969 C 268.496094 474.046875 268.207031 474.714844 268.011719 475.417969 C 267.816406 476.125 267.71875 476.84375 267.71875 477.578125 C 267.71875 478.308594 267.816406 479.027344 268.011719 479.734375 C 268.207031 480.441406 268.496094 481.109375 268.871094 481.738281 C 269.25 482.363281 269.703125 482.929688 270.234375 483.4375 C 270.765625 483.941406 271.355469 484.363281 272.003906 484.710938 L 413.691406 558.660156 C 414.863281 559.273438 416.109375 559.578125 417.429688 559.578125 C 418.753906 559.578125 420 559.273438 421.171875 558.660156 L 562.457031 484.710938 C 563.09375 484.382812 563.679688 483.980469 564.210938 483.503906 C 564.742188 483.023438 565.203125 482.480469 565.589844 481.878906 C 565.976562 481.277344 566.277344 480.632812 566.496094 479.953125 C 566.710938 479.269531 566.835938 478.570312 566.867188 477.855469 C 566.898438 477.140625 566.832031 476.433594 566.675781 475.734375 C 566.519531 475.035156 566.273438 474.371094 565.941406 473.738281 C 565.605469 473.101562 565.195312 472.523438 564.707031 472 C 564.21875 471.476562 563.671875 471.023438 563.0625 470.648438 L 546.449219 460.988281 L 562.617188 452.460938 C 563.261719 452.132812 563.851562 451.722656 564.382812 451.238281 C 564.917969 450.75 565.378906 450.203125 565.765625 449.589844 C 566.152344 448.980469 566.449219 448.332031 566.664062 447.640625 C 566.875 446.949219 566.992188 446.242188 567.015625 445.519531 C 567.039062 444.796875 566.964844 444.085938 566.796875 443.382812 C 566.628906 442.679688 566.371094 442.011719 566.023438 441.378906 C 565.675781 440.746094 565.25 440.171875 564.75 439.652344 C 564.246094 439.132812 563.683594 438.6875 563.0625 438.316406 L 546.449219 428.660156 L 562.617188 420.132812 C 563.296875 419.796875 563.917969 419.371094 564.476562 418.859375 C 565.039062 418.347656 565.515625 417.765625 565.914062 417.121094 C 566.308594 416.472656 566.609375 415.785156 566.8125 415.054688 C 567.015625 414.320312 567.113281 413.578125 567.105469 412.820312 Z M 417.53125 350.382812 L 541.355469 412.980469 L 417.734375 477.636719 L 293.710938 412.980469 Z M 417.53125 542.335938 L 293.183594 477.355469 L 306.363281 470.160156 L 414.015625 526.292969 C 415.1875 526.902344 416.433594 527.207031 417.753906 527.207031 C 419.078125 527.207031 420.324219 526.902344 421.496094 526.292969 L 529.511719 469.71875 L 542.285156 477.113281 Z M 417.53125 510.007812 L 293.183594 445.027344 L 306.363281 437.832031 L 414.015625 493.964844 C 415.1875 494.574219 416.433594 494.878906 417.753906 494.878906 C 419.078125 494.878906 420.324219 494.574219 421.496094 493.964844 L 529.511719 437.386719 L 542.285156 444.785156 Z M 417.53125 510.007812"/><path d="M 619.65625 519.140625 C 619.65625 518.34375 619.621094 517.554688 619.542969 516.761719 C 619.464844 515.972656 619.347656 515.1875 619.191406 514.410156 C 619.035156 513.628906 618.84375 512.859375 618.613281 512.101562 C 618.382812 511.339844 618.117188 510.59375 617.8125 509.859375 C 617.507812 509.128906 617.167969 508.410156 616.792969 507.710938 C 616.417969 507.007812 616.011719 506.328125 615.570312 505.667969 C 615.128906 505.007812 614.65625 504.371094 614.152344 503.757812 C 613.648438 503.144531 613.117188 502.554688 612.554688 501.996094 C 611.992188 501.433594 611.40625 500.902344 610.789062 500.398438 C 610.175781 499.894531 609.539062 499.421875 608.878906 498.980469 C 608.21875 498.539062 607.539062 498.128906 606.835938 497.757812 C 606.136719 497.382812 605.417969 497.042969 604.683594 496.738281 C 603.949219 496.433594 603.203125 496.167969 602.445312 495.9375 C 601.683594 495.707031 600.914062 495.515625 600.136719 495.359375 C 599.355469 495.203125 598.570312 495.085938 597.78125 495.011719 C 596.988281 494.933594 596.199219 494.894531 595.402344 494.894531 C 594.609375 494.894531 593.816406 494.933594 593.027344 495.011719 C 592.234375 495.085938 591.449219 495.203125 590.671875 495.359375 C 589.890625 495.515625 589.121094 495.707031 588.363281 495.9375 C 587.601562 496.167969 586.855469 496.433594 586.121094 496.738281 C 585.386719 497.042969 584.667969 497.382812 583.96875 497.757812 C 583.269531 498.128906 582.589844 498.539062 581.925781 498.980469 C 581.265625 499.421875 580.628906 499.894531 580.015625 500.398438 C 579.402344 500.902344 578.8125 501.433594 578.253906 501.996094 C 577.691406 502.554688 577.15625 503.144531 576.652344 503.757812 C 576.148438 504.371094 575.675781 505.007812 575.234375 505.667969 C 574.792969 506.328125 574.386719 507.007812 574.011719 507.710938 C 573.636719 508.410156 573.296875 509.128906 572.996094 509.859375 C 572.691406 510.59375 572.421875 511.339844 572.191406 512.101562 C 571.960938 512.859375 571.769531 513.628906 571.613281 514.410156 C 571.460938 515.1875 571.34375 515.972656 571.265625 516.761719 C 571.1875 517.554688 571.148438 518.34375 571.148438 519.140625 C 571.148438 519.933594 571.1875 520.726562 571.265625 521.515625 C 571.34375 522.304688 571.460938 523.089844 571.613281 523.871094 C 571.769531 524.648438 571.960938 525.417969 572.191406 526.179688 C 572.421875 526.9375 572.691406 527.683594 572.996094 528.417969 C 573.296875 529.152344 573.636719 529.867188 574.011719 530.570312 C 574.386719 531.269531 574.792969 531.949219 575.234375 532.609375 C 575.675781 533.269531 576.148438 533.90625 576.652344 534.523438 C 577.15625 535.136719 577.691406 535.722656 578.253906 536.285156 C 578.8125 536.847656 579.402344 537.378906 580.015625 537.882812 C 580.628906 538.386719 581.265625 538.859375 581.925781 539.300781 C 582.589844 539.742188 583.269531 540.148438 583.96875 540.523438 C 584.667969 540.898438 585.386719 541.238281 586.121094 541.539062 C 586.855469 541.84375 587.601562 542.113281 588.363281 542.34375 C 589.121094 542.574219 589.890625 542.765625 590.671875 542.921875 C 591.449219 543.074219 592.234375 543.191406 593.027344 543.269531 C 593.816406 543.347656 594.609375 543.386719 595.402344 543.386719 C 596.199219 543.386719 596.988281 543.347656 597.78125 543.269531 C 598.570312 543.191406 599.355469 543.074219 600.136719 542.921875 C 600.914062 542.765625 601.683594 542.574219 602.445312 542.34375 C 603.203125 542.113281 603.949219 541.84375 604.683594 541.539062 C 605.417969 541.238281 606.136719 540.898438 606.835938 540.523438 C 607.539062 540.148438 608.21875 539.742188 608.878906 539.300781 C 609.539062 538.859375 610.175781 538.386719 610.789062 537.882812 C 611.40625 537.378906 611.992188 536.847656 612.554688 536.285156 C 613.117188 535.722656 613.648438 535.136719 614.152344 534.523438 C 614.65625 533.90625 615.128906 533.269531 615.570312 532.609375 C 616.011719 531.949219 616.417969 531.269531 616.792969 530.570312 C 617.167969 529.867188 617.507812 529.152344 617.8125 528.417969 C 618.117188 527.683594 618.382812 526.9375 618.613281 526.179688 C 618.84375 525.417969 619.035156 524.648438 619.191406 523.871094 C 619.347656 523.089844 619.464844 522.304688 619.542969 521.515625 C 619.621094 520.726562 619.65625 519.933594 619.65625 519.140625 Z M 587.316406 519.140625 C 587.316406 518.609375 587.371094 518.082031 587.472656 517.5625 C 587.578125 517.042969 587.730469 516.535156 587.933594 516.046875 C 588.136719 515.554688 588.386719 515.089844 588.679688 514.648438 C 588.976562 514.207031 589.3125 513.800781 589.6875 513.425781 C 590.0625 513.050781 590.46875 512.714844 590.910156 512.417969 C 591.351562 512.125 591.820312 511.875 592.308594 511.671875 C 592.800781 511.46875 593.304688 511.316406 593.824219 511.210938 C 594.347656 511.109375 594.871094 511.058594 595.402344 511.058594 C 595.933594 511.058594 596.460938 511.109375 596.980469 511.210938 C 597.5 511.316406 598.007812 511.46875 598.496094 511.671875 C 598.988281 511.875 599.453125 512.125 599.894531 512.417969 C 600.335938 512.714844 600.746094 513.050781 601.121094 513.425781 C 601.496094 513.800781 601.832031 514.207031 602.125 514.648438 C 602.421875 515.089844 602.667969 515.554688 602.871094 516.046875 C 603.074219 516.535156 603.230469 517.042969 603.332031 517.5625 C 603.4375 518.082031 603.488281 518.609375 603.488281 519.140625 C 603.488281 519.671875 603.4375 520.195312 603.332031 520.714844 C 603.230469 521.238281 603.074219 521.742188 602.871094 522.234375 C 602.667969 522.722656 602.421875 523.1875 602.125 523.628906 C 601.832031 524.070312 601.496094 524.480469 601.121094 524.855469 C 600.746094 525.230469 600.335938 525.566406 599.894531 525.859375 C 599.453125 526.15625 598.988281 526.402344 598.496094 526.605469 C 598.007812 526.808594 597.5 526.964844 596.980469 527.066406 C 596.460938 527.171875 595.933594 527.222656 595.402344 527.222656 C 594.871094 527.222656 594.347656 527.171875 593.824219 527.066406 C 593.304688 526.964844 592.800781 526.808594 592.308594 526.605469 C 591.820312 526.402344 591.351562 526.15625 590.910156 525.859375 C 590.46875 525.566406 590.0625 525.230469 589.6875 524.855469 C 589.3125 524.480469 588.976562 524.070312 588.679688 523.628906 C 588.386719 523.1875 588.136719 522.722656 587.933594 522.234375 C 587.730469 521.742188 587.578125 521.238281 587.472656 520.714844 C 587.371094 520.195312 587.316406 519.671875 587.316406 519.140625 Z M 587.316406 519.140625"/><path d="M 643.914062 551.46875 C 643.914062 552 643.859375 552.523438 643.757812 553.046875 C 643.652344 553.566406 643.5 554.070312 643.296875 554.5625 C 643.09375 555.050781 642.84375 555.515625 642.550781 555.957031 C 642.253906 556.398438 641.921875 556.808594 641.546875 557.183594 C 641.167969 557.558594 640.761719 557.894531 640.320312 558.1875 C 639.878906 558.484375 639.414062 558.730469 638.921875 558.933594 C 638.429688 559.136719 637.925781 559.292969 637.40625 559.394531 C 636.882812 559.5 636.359375 559.550781 635.828125 559.550781 C 635.296875 559.550781 634.769531 559.5 634.25 559.394531 C 633.730469 559.292969 633.222656 559.136719 632.734375 558.933594 C 632.242188 558.730469 631.777344 558.484375 631.335938 558.1875 C 630.894531 557.894531 630.488281 557.558594 630.109375 557.183594 C 629.734375 556.808594 629.402344 556.398438 629.105469 555.957031 C 628.8125 555.515625 628.5625 555.050781 628.359375 554.5625 C 628.15625 554.070312 628.003906 553.566406 627.898438 553.046875 C 627.792969 552.523438 627.742188 552 627.742188 551.46875 C 627.742188 550.9375 627.792969 550.414062 627.898438 549.890625 C 628.003906 549.371094 628.15625 548.867188 628.359375 548.375 C 628.5625 547.886719 628.8125 547.417969 629.105469 546.976562 C 629.402344 546.535156 629.734375 546.128906 630.109375 545.753906 C 630.488281 545.378906 630.894531 545.042969 631.335938 544.75 C 631.777344 544.453125 632.242188 544.203125 632.734375 544 C 633.222656 543.796875 633.730469 543.644531 634.25 543.542969 C 634.769531 543.4375 635.296875 543.386719 635.828125 543.386719 C 636.359375 543.386719 636.882812 543.4375 637.40625 543.542969 C 637.925781 543.644531 638.429688 543.796875 638.921875 544 C 639.414062 544.203125 639.878906 544.453125 640.320312 544.75 C 640.761719 545.042969 641.167969 545.378906 641.546875 545.753906 C 641.921875 546.128906 642.253906 546.535156 642.550781 546.976562 C 642.84375 547.417969 643.09375 547.886719 643.296875 548.375 C 643.5 548.867188 643.652344 549.371094 643.757812 549.890625 C 643.859375 550.414062 643.914062 550.9375 643.914062 551.46875 Z M 643.914062 551.46875"/><path d="M 239.660156 494.894531 C 238.867188 494.894531 238.074219 494.933594 237.285156 495.011719 C 236.492188 495.085938 235.710938 495.203125 234.929688 495.359375 C 234.152344 495.515625 233.382812 495.707031 232.621094 495.9375 C 231.859375 496.167969 231.113281 496.433594 230.378906 496.738281 C 229.644531 497.042969 228.929688 497.382812 228.226562 497.757812 C 227.527344 498.128906 226.847656 498.539062 226.1875 498.980469 C 225.527344 499.421875 224.890625 499.894531 224.273438 500.398438 C 223.660156 500.902344 223.074219 501.433594 222.511719 501.996094 C 221.949219 502.554688 221.417969 503.144531 220.914062 503.757812 C 220.410156 504.371094 219.9375 505.007812 219.496094 505.667969 C 219.054688 506.328125 218.644531 507.007812 218.269531 507.710938 C 217.894531 508.410156 217.558594 509.128906 217.253906 509.859375 C 216.949219 510.59375 216.683594 511.339844 216.453125 512.101562 C 216.222656 512.859375 216.027344 513.628906 215.871094 514.410156 C 215.71875 515.1875 215.601562 515.972656 215.523438 516.761719 C 215.445312 517.554688 215.40625 518.34375 215.40625 519.140625 C 215.40625 519.933594 215.445312 520.726562 215.523438 521.515625 C 215.601562 522.304688 215.71875 523.089844 215.871094 523.871094 C 216.027344 524.648438 216.222656 525.417969 216.453125 526.179688 C 216.683594 526.9375 216.949219 527.683594 217.253906 528.417969 C 217.558594 529.152344 217.894531 529.867188 218.269531 530.570312 C 218.644531 531.269531 219.054688 531.949219 219.496094 532.609375 C 219.9375 533.269531 220.410156 533.90625 220.914062 534.523438 C 221.417969 535.136719 221.949219 535.722656 222.511719 536.285156 C 223.074219 536.847656 223.660156 537.378906 224.273438 537.882812 C 224.890625 538.386719 225.527344 538.859375 226.1875 539.300781 C 226.847656 539.742188 227.527344 540.148438 228.226562 540.523438 C 228.929688 540.898438 229.644531 541.238281 230.378906 541.539062 C 231.113281 541.84375 231.859375 542.113281 232.621094 542.34375 C 233.382812 542.574219 234.152344 542.765625 234.929688 542.921875 C 235.710938 543.074219 236.492188 543.191406 237.285156 543.269531 C 238.074219 543.347656 238.867188 543.386719 239.660156 543.386719 C 240.457031 543.386719 241.25 543.347656 242.039062 543.269531 C 242.828125 543.191406 243.613281 543.074219 244.394531 542.921875 C 245.171875 542.765625 245.941406 542.574219 246.703125 542.34375 C 247.464844 542.113281 248.210938 541.84375 248.945312 541.539062 C 249.679688 541.238281 250.394531 540.898438 251.097656 540.523438 C 251.796875 540.148438 252.476562 539.742188 253.136719 539.300781 C 253.796875 538.859375 254.433594 538.386719 255.050781 537.882812 C 255.664062 537.378906 256.25 536.847656 256.8125 536.285156 C 257.375 535.722656 257.90625 535.136719 258.410156 534.523438 C 258.914062 533.90625 259.386719 533.269531 259.828125 532.609375 C 260.269531 531.949219 260.679688 531.269531 261.054688 530.570312 C 261.425781 529.867188 261.765625 529.152344 262.070312 528.417969 C 262.375 527.683594 262.640625 526.9375 262.871094 526.179688 C 263.101562 525.417969 263.296875 524.648438 263.449219 523.871094 C 263.605469 523.089844 263.722656 522.304688 263.800781 521.515625 C 263.878906 520.726562 263.917969 519.933594 263.917969 519.140625 C 263.917969 518.34375 263.878906 517.554688 263.800781 516.761719 C 263.722656 515.972656 263.605469 515.1875 263.449219 514.410156 C 263.296875 513.628906 263.101562 512.859375 262.871094 512.101562 C 262.640625 511.339844 262.375 510.59375 262.070312 509.859375 C 261.765625 509.128906 261.425781 508.410156 261.054688 507.710938 C 260.679688 507.007812 260.269531 506.328125 259.828125 505.667969 C 259.386719 505.007812 258.914062 504.371094 258.410156 503.757812 C 257.90625 503.144531 257.375 502.554688 256.8125 501.996094 C 256.25 501.433594 255.664062 500.902344 255.050781 500.398438 C 254.433594 499.894531 253.796875 499.421875 253.136719 498.980469 C 252.476562 498.539062 251.796875 498.128906 251.097656 497.757812 C 250.394531 497.382812 249.679688 497.042969 248.945312 496.738281 C 248.210938 496.433594 247.464844 496.167969 246.703125 495.9375 C 245.941406 495.707031 245.171875 495.515625 244.394531 495.359375 C 243.613281 495.203125 242.828125 495.085938 242.039062 495.011719 C 241.25 494.933594 240.457031 494.894531 239.660156 494.894531 Z M 239.660156 527.222656 C 239.132812 527.222656 238.605469 527.171875 238.085938 527.066406 C 237.5625 526.964844 237.058594 526.808594 236.566406 526.605469 C 236.078125 526.402344 235.613281 526.15625 235.171875 525.859375 C 234.730469 525.566406 234.320312 525.230469 233.945312 524.855469 C 233.570312 524.480469 233.234375 524.070312 232.941406 523.628906 C 232.644531 523.1875 232.394531 522.722656 232.191406 522.234375 C 231.988281 521.742188 231.835938 521.238281 231.730469 520.714844 C 231.628906 520.195312 231.578125 519.671875 231.578125 519.140625 C 231.578125 518.609375 231.628906 518.082031 231.730469 517.5625 C 231.835938 517.042969 231.988281 516.535156 232.191406 516.046875 C 232.394531 515.554688 232.644531 515.089844 232.941406 514.648438 C 233.234375 514.207031 233.570312 513.800781 233.945312 513.425781 C 234.320312 513.050781 234.730469 512.714844 235.171875 512.417969 C 235.613281 512.125 236.078125 511.875 236.566406 511.671875 C 237.058594 511.46875 237.5625 511.316406 238.085938 511.210938 C 238.605469 511.109375 239.132812 511.058594 239.660156 511.058594 C 240.191406 511.058594 240.71875 511.109375 241.238281 511.210938 C 241.761719 511.316406 242.265625 511.46875 242.757812 511.671875 C 243.246094 511.875 243.710938 512.125 244.152344 512.417969 C 244.59375 512.714844 245.003906 513.050781 245.378906 513.425781 C 245.753906 513.800781 246.089844 514.207031 246.382812 514.648438 C 246.679688 515.089844 246.929688 515.554688 247.132812 516.046875 C 247.335938 516.535156 247.488281 517.042969 247.589844 517.5625 C 247.695312 518.082031 247.746094 518.609375 247.746094 519.140625 C 247.746094 519.671875 247.695312 520.195312 247.589844 520.714844 C 247.488281 521.238281 247.335938 521.742188 247.132812 522.234375 C 246.929688 522.722656 246.679688 523.1875 246.382812 523.628906 C 246.089844 524.070312 245.753906 524.480469 245.378906 524.855469 C 245.003906 525.230469 244.59375 525.566406 244.152344 525.859375 C 243.710938 526.15625 243.246094 526.402344 242.757812 526.605469 C 242.265625 526.808594 241.761719 526.964844 241.238281 527.066406 C 240.71875 527.171875 240.191406 527.222656 239.660156 527.222656 Z M 239.660156 527.222656"/><path d="M 207.320312 551.46875 C 207.320312 552 207.269531 552.523438 207.167969 553.046875 C 207.0625 553.566406 206.910156 554.070312 206.707031 554.5625 C 206.503906 555.050781 206.253906 555.515625 205.960938 555.957031 C 205.664062 556.398438 205.328125 556.808594 204.953125 557.183594 C 204.578125 557.558594 204.171875 557.894531 203.730469 558.1875 C 203.289062 558.484375 202.820312 558.730469 202.332031 558.933594 C 201.839844 559.136719 201.335938 559.292969 200.8125 559.394531 C 200.292969 559.5 199.769531 559.550781 199.238281 559.550781 C 198.707031 559.550781 198.179688 559.5 197.660156 559.394531 C 197.140625 559.292969 196.632812 559.136719 196.144531 558.933594 C 195.652344 558.730469 195.1875 558.484375 194.746094 558.1875 C 194.304688 557.894531 193.894531 557.558594 193.519531 557.183594 C 193.144531 556.808594 192.808594 556.398438 192.515625 555.957031 C 192.21875 555.515625 191.96875 555.050781 191.765625 554.5625 C 191.5625 554.070312 191.410156 553.566406 191.308594 553.046875 C 191.203125 552.523438 191.152344 552 191.152344 551.46875 C 191.152344 550.9375 191.203125 550.414062 191.308594 549.890625 C 191.410156 549.371094 191.5625 548.867188 191.765625 548.375 C 191.96875 547.886719 192.21875 547.417969 192.515625 546.976562 C 192.808594 546.535156 193.144531 546.128906 193.519531 545.753906 C 193.894531 545.378906 194.304688 545.042969 194.746094 544.75 C 195.1875 544.453125 195.652344 544.203125 196.144531 544 C 196.632812 543.796875 197.140625 543.644531 197.660156 543.542969 C 198.179688 543.4375 198.707031 543.386719 199.238281 543.386719 C 199.769531 543.386719 200.292969 543.4375 200.8125 543.542969 C 201.335938 543.644531 201.839844 543.796875 202.332031 544 C 202.820312 544.203125 203.289062 544.453125 203.730469 544.75 C 204.171875 545.042969 204.578125 545.378906 204.953125 545.753906 C 205.328125 546.128906 205.664062 546.535156 205.960938 546.976562 C 206.253906 547.417969 206.503906 547.886719 206.707031 548.375 C 206.910156 548.867188 207.0625 549.371094 207.167969 549.890625 C 207.269531 550.414062 207.320312 550.9375 207.320312 551.46875 Z M 207.320312 551.46875"/><path d="M 449.871094 272.632812 L 385.191406 272.632812 C 384.980469 275.5 384.433594 278.300781 383.542969 281.035156 C 382.65625 283.765625 381.453125 286.355469 379.9375 288.796875 L 455.25 288.796875 C 453.710938 286.359375 452.488281 283.773438 451.578125 281.042969 C 450.671875 278.308594 450.101562 275.503906 449.871094 272.632812 Z M 449.871094 272.632812"/><g clip-path="url(#c)"><path d="M 660.730469 346.464844 L 660.082031 347.109375 L 660.082031 571.675781 C 660.082031 572.203125 660.03125 572.730469 659.929688 573.25 C 659.824219 573.769531 659.671875 574.277344 659.46875 574.765625 C 659.265625 575.257812 659.015625 575.722656 658.71875 576.164062 C 658.425781 576.605469 658.089844 577.011719 657.714844 577.390625 C 657.339844 577.765625 656.929688 578.097656 656.488281 578.394531 C 656.046875 578.6875 655.582031 578.9375 655.09375 579.140625 C 654.601562 579.34375 654.097656 579.496094 653.574219 579.601562 C 653.054688 579.703125 652.527344 579.757812 652 579.757812 L 183.066406 579.757812 C 182.535156 579.757812 182.011719 579.703125 181.488281 579.601562 C 180.96875 579.496094 180.464844 579.34375 179.972656 579.140625 C 179.480469 578.9375 179.015625 578.6875 178.574219 578.394531 C 178.132812 578.097656 177.726562 577.765625 177.351562 577.390625 C 176.972656 577.011719 176.640625 576.605469 176.34375 576.164062 C 176.050781 575.722656 175.800781 575.257812 175.597656 574.765625 C 175.394531 574.277344 175.242188 573.769531 175.136719 573.25 C 175.035156 572.730469 174.980469 572.203125 174.980469 571.675781 L 174.980469 347.109375 L 174.335938 346.464844 C 173.648438 345.789062 172.992188 345.089844 172.363281 344.359375 C 171.734375 343.632812 171.136719 342.878906 170.574219 342.101562 C 170.007812 341.324219 169.472656 340.523438 168.972656 339.703125 C 168.472656 338.878906 168.007812 338.039062 167.578125 337.179688 C 167.148438 336.320312 166.753906 335.441406 166.394531 334.550781 C 166.039062 333.65625 165.71875 332.75 165.433594 331.832031 C 165.152344 330.914062 164.90625 329.984375 164.703125 329.042969 C 164.496094 328.105469 164.328125 327.15625 164.199219 326.203125 C 164.074219 325.25 163.984375 324.292969 163.933594 323.335938 C 163.886719 322.375 163.878906 321.414062 163.90625 320.453125 C 163.9375 319.492188 164.007812 318.53125 164.117188 317.578125 C 164.226562 316.621094 164.378906 315.671875 164.566406 314.730469 C 164.753906 313.785156 164.980469 312.851562 165.246094 311.925781 C 165.511719 311.003906 165.816406 310.089844 166.15625 309.191406 C 166.496094 308.292969 166.875 307.410156 167.289062 306.539062 C 167.703125 305.671875 168.152344 304.824219 168.636719 303.992188 C 165.140625 303.179688 161.867188 301.832031 158.8125 299.949219 L 158.8125 571.675781 C 158.8125 572.46875 158.851562 573.261719 158.929688 574.050781 C 159.007812 574.839844 159.121094 575.625 159.277344 576.402344 C 159.433594 577.183594 159.625 577.953125 159.855469 578.710938 C 160.085938 579.472656 160.355469 580.21875 160.65625 580.953125 C 160.960938 581.6875 161.300781 582.402344 161.675781 583.105469 C 162.050781 583.804688 162.457031 584.484375 162.898438 585.144531 C 163.339844 585.804688 163.8125 586.441406 164.316406 587.054688 C 164.820312 587.667969 165.355469 588.257812 165.914062 588.820312 C 166.476562 589.378906 167.066406 589.914062 167.679688 590.417969 C 168.292969 590.921875 168.929688 591.394531 169.589844 591.835938 C 170.25 592.273438 170.933594 592.683594 171.632812 593.058594 C 172.332031 593.433594 173.050781 593.769531 173.785156 594.074219 C 174.519531 594.378906 175.265625 594.644531 176.027344 594.875 C 176.785156 595.105469 177.554688 595.300781 178.335938 595.453125 C 179.113281 595.609375 179.898438 595.726562 180.6875 595.804688 C 181.480469 595.882812 182.273438 595.921875 183.066406 595.921875 L 385.191406 595.921875 L 385.191406 612.085938 L 348.808594 612.085938 C 348.277344 612.085938 347.753906 612.136719 347.234375 612.238281 C 346.710938 612.34375 346.207031 612.496094 345.714844 612.699219 C 345.226562 612.902344 344.757812 613.152344 344.316406 613.445312 C 343.875 613.742188 343.46875 614.078125 343.09375 614.453125 C 342.71875 614.828125 342.382812 615.234375 342.085938 615.675781 C 341.792969 616.117188 341.542969 616.582031 341.339844 617.074219 C 341.136719 617.5625 340.984375 618.070312 340.878906 618.589844 C 340.777344 619.109375 340.726562 619.636719 340.726562 620.167969 C 340.726562 620.699219 340.777344 621.222656 340.878906 621.742188 C 340.984375 622.265625 341.136719 622.769531 341.339844 623.261719 C 341.542969 623.75 341.792969 624.214844 342.085938 624.65625 C 342.382812 625.097656 342.71875 625.507812 343.09375 625.882812 C 343.46875 626.257812 343.875 626.59375 344.316406 626.886719 C 344.757812 627.183594 345.226562 627.429688 345.714844 627.632812 C 346.207031 627.835938 346.710938 627.992188 347.234375 628.09375 C 347.753906 628.199219 348.277344 628.25 348.808594 628.25 L 486.253906 628.25 C 486.785156 628.25 487.3125 628.199219 487.832031 628.09375 C 488.351562 627.992188 488.859375 627.835938 489.347656 627.632812 C 489.839844 627.429688 490.304688 627.183594 490.746094 626.886719 C 491.1875 626.59375 491.597656 626.257812 491.972656 625.882812 C 492.347656 625.507812 492.683594 625.097656 492.976562 624.65625 C 493.273438 624.214844 493.523438 623.75 493.726562 623.261719 C 493.929688 622.769531 494.082031 622.265625 494.183594 621.742188 C 494.289062 621.222656 494.339844 620.699219 494.339844 620.167969 C 494.339844 619.636719 494.289062 619.109375 494.183594 618.589844 C 494.082031 618.070312 493.929688 617.5625 493.726562 617.074219 C 493.523438 616.582031 493.273438 616.117188 492.976562 615.675781 C 492.683594 615.234375 492.347656 614.828125 491.972656 614.453125 C 491.597656 614.078125 491.1875 613.742188 490.746094 613.445312 C 490.304688 613.152344 489.839844 612.902344 489.347656 612.699219 C 488.859375 612.496094 488.351562 612.34375 487.832031 612.238281 C 487.3125 612.136719 486.785156 612.085938 486.253906 612.085938 L 449.871094 612.085938 L 449.871094 595.921875 L 652 595.921875 C 652.792969 595.921875 653.585938 595.882812 654.375 595.804688 C 655.167969 595.726562 655.949219 595.609375 656.730469 595.453125 C 657.507812 595.300781 658.277344 595.105469 659.039062 594.875 C 659.800781 594.644531 660.546875 594.378906 661.28125 594.074219 C 662.015625 593.769531 662.730469 593.433594 663.433594 593.058594 C 664.132812 592.683594 664.8125 592.273438 665.472656 591.835938 C 666.132812 591.394531 666.769531 590.921875 667.386719 590.417969 C 668 589.914062 668.585938 589.378906 669.148438 588.820312 C 669.710938 588.257812 670.242188 587.667969 670.746094 587.054688 C 671.25 586.441406 671.722656 585.804688 672.164062 585.144531 C 672.605469 584.484375 673.015625 583.804688 673.390625 583.105469 C 673.765625 582.402344 674.101562 581.6875 674.40625 580.953125 C 674.710938 580.21875 674.976562 579.472656 675.207031 578.710938 C 675.4375 577.953125 675.632812 577.183594 675.789062 576.402344 C 675.941406 575.625 676.058594 574.839844 676.136719 574.050781 C 676.214844 573.261719 676.253906 572.46875 676.253906 571.675781 L 676.253906 299.789062 C 673.199219 301.671875 669.925781 303.015625 666.429688 303.832031 C 666.917969 304.664062 667.371094 305.515625 667.792969 306.386719 C 668.210938 307.257812 668.589844 308.144531 668.9375 309.046875 C 669.28125 309.949219 669.585938 310.863281 669.855469 311.789062 C 670.125 312.71875 670.355469 313.65625 670.546875 314.601562 C 670.738281 315.550781 670.886719 316.503906 671 317.460938 C 671.113281 318.421875 671.183594 319.382812 671.214844 320.351562 C 671.246094 321.316406 671.238281 322.28125 671.191406 323.246094 C 671.144531 324.210938 671.054688 325.171875 670.925781 326.128906 C 670.800781 327.085938 670.632812 328.035156 670.425781 328.980469 C 670.21875 329.921875 669.972656 330.855469 669.6875 331.78125 C 669.402344 332.703125 669.082031 333.613281 668.722656 334.507812 C 668.359375 335.40625 667.964844 336.285156 667.53125 337.148438 C 667.097656 338.011719 666.628906 338.855469 666.128906 339.683594 C 665.625 340.507812 665.085938 341.308594 664.519531 342.089844 C 663.949219 342.871094 663.347656 343.625 662.714844 344.355469 C 662.082031 345.085938 661.421875 345.789062 660.730469 346.464844 Z M 433.703125 612.085938 L 401.363281 612.085938 L 401.363281 595.921875 L 433.703125 595.921875 Z M 433.703125 612.085938"/></g></svg>